G04 #@! TF.FileFunction,Copper,L1,Top,Signal*
%FSLAX46Y46*%
G04 Gerber Fmt 4.6, Leading zero omitted, Abs format (unit mm)*
G04 Created by KiCad (PCBNEW 4.0.2-stable) date Saturday, September 03, 2016 'PMt' 12:33:19 PM*
%MOMM*%
G01*
G04 APERTURE LIST*
%ADD10C,0.100000*%
%ADD11R,2.540000X2.540000*%
%ADD12O,2.540000X2.540000*%
%ADD13R,1.600000X2.800000*%
%ADD14R,0.450000X0.590000*%
%ADD15R,2.032000X1.727200*%
%ADD16O,2.032000X1.727200*%
%ADD17O,1.501140X2.499360*%
%ADD18R,0.700000X1.300000*%
%ADD19R,1.300000X0.700000*%
%ADD20C,2.000000*%
%ADD21R,1.143000X0.508000*%
%ADD22C,1.500000*%
%ADD23R,3.200000X1.000000*%
%ADD24C,1.143000*%
%ADD25C,0.609600*%
%ADD26C,0.254000*%
G04 APERTURE END LIST*
D10*
D11*
X143637000Y-64262000D03*
D12*
X143637000Y-69342000D03*
D13*
X122809000Y-76590000D03*
X122809000Y-80890000D03*
D14*
X125349000Y-59856000D03*
X125349000Y-57746000D03*
D11*
X143637000Y-75438000D03*
D12*
X143637000Y-80518000D03*
D15*
X137287000Y-69342000D03*
D16*
X137287000Y-66802000D03*
X137287000Y-64262000D03*
D17*
X127000000Y-52070000D03*
X124460000Y-52070000D03*
X129540000Y-52070000D03*
D18*
X123378000Y-69088000D03*
X121478000Y-69088000D03*
D19*
X121285000Y-57724000D03*
X121285000Y-59624000D03*
D18*
X123251000Y-65786000D03*
X121351000Y-65786000D03*
X137729000Y-81661000D03*
X135829000Y-81661000D03*
X130241000Y-81534000D03*
X132141000Y-81534000D03*
D19*
X127762000Y-78547000D03*
X127762000Y-76647000D03*
X125603000Y-73213000D03*
X125603000Y-71313000D03*
X128016000Y-56200000D03*
X128016000Y-58100000D03*
D20*
X110490000Y-70826000D03*
X110490000Y-68326000D03*
X110490000Y-65826000D03*
X115149000Y-82296000D03*
X112649000Y-82296000D03*
X110149000Y-82296000D03*
D21*
X132715000Y-65278000D03*
X132715000Y-66548000D03*
X132715000Y-67818000D03*
X132715000Y-69088000D03*
X126365000Y-69088000D03*
X126365000Y-67818000D03*
X126365000Y-66548000D03*
X126365000Y-65278000D03*
X137160000Y-74803000D03*
X137160000Y-76073000D03*
X137160000Y-77343000D03*
X137160000Y-78613000D03*
X130810000Y-78613000D03*
X130810000Y-77343000D03*
X130810000Y-76073000D03*
X130810000Y-74803000D03*
D22*
X151003000Y-60579000D03*
X103378000Y-79502000D03*
X123952000Y-62230000D03*
X118999000Y-62357000D03*
X133858000Y-72644000D03*
X128778000Y-85344000D03*
X123190000Y-85471000D03*
X125476000Y-55499000D03*
X126619000Y-62103000D03*
D23*
X131699000Y-55828000D03*
X131699000Y-62028000D03*
D22*
X143637000Y-87503000D03*
D24*
X124841000Y-69850000D03*
X123825000Y-73152000D03*
X134366000Y-63754000D03*
X134366000Y-81661000D03*
X129413000Y-70104000D03*
X119253000Y-65786000D03*
X134112000Y-76073000D03*
X138557000Y-72644000D03*
X129032000Y-67818000D03*
X129032000Y-62230000D03*
D25*
X132715000Y-65278000D02*
X133604000Y-65278000D01*
X130810000Y-72898000D02*
X130810000Y-74803000D01*
X134239000Y-69469000D02*
X130810000Y-72898000D01*
X134239000Y-65913000D02*
X134239000Y-69469000D01*
X133604000Y-65278000D02*
X134239000Y-65913000D01*
X128778000Y-85344000D02*
X128778000Y-82997000D01*
X128778000Y-82997000D02*
X130241000Y-81534000D01*
X124079000Y-69088000D02*
X123378000Y-69088000D01*
X124841000Y-69850000D02*
X124079000Y-69088000D01*
X125603000Y-73213000D02*
X123886000Y-73213000D01*
X123886000Y-73213000D02*
X123825000Y-73152000D01*
X125603000Y-73213000D02*
X127061000Y-73213000D01*
X127061000Y-73213000D02*
X128651000Y-74803000D01*
X122809000Y-76590000D02*
X124197000Y-76590000D01*
X125984000Y-74803000D02*
X128651000Y-74803000D01*
X128651000Y-74803000D02*
X130810000Y-74803000D01*
X124197000Y-76590000D02*
X125984000Y-74803000D01*
X130241000Y-81534000D02*
X127753000Y-81534000D01*
X127753000Y-81534000D02*
X122809000Y-76590000D01*
X143637000Y-80518000D02*
X143637000Y-87503000D01*
X131699000Y-62028000D02*
X132640000Y-62028000D01*
X132640000Y-62028000D02*
X134366000Y-63754000D01*
X131699000Y-62028000D02*
X132767000Y-62028000D01*
X122809000Y-80890000D02*
X122809000Y-80899000D01*
X122809000Y-80899000D02*
X119507000Y-84201000D01*
X119507000Y-84201000D02*
X114554000Y-84201000D01*
X114554000Y-84201000D02*
X112649000Y-82296000D01*
X135829000Y-81661000D02*
X134366000Y-81661000D01*
X126365000Y-69088000D02*
X128397000Y-69088000D01*
X128397000Y-69088000D02*
X129413000Y-70104000D01*
X121351000Y-65786000D02*
X119253000Y-65786000D01*
X137160000Y-76073000D02*
X134112000Y-76073000D01*
X137160000Y-77343000D02*
X135382000Y-77343000D01*
X135382000Y-77343000D02*
X134112000Y-76073000D01*
X130810000Y-77343000D02*
X132842000Y-77343000D01*
X132842000Y-77343000D02*
X134112000Y-76073000D01*
X130810000Y-76073000D02*
X134112000Y-76073000D01*
X127762000Y-76647000D02*
X129220000Y-76647000D01*
X129794000Y-76073000D02*
X130810000Y-76073000D01*
X129220000Y-76647000D02*
X129794000Y-76073000D01*
X133858000Y-72644000D02*
X136906000Y-72898000D01*
X136906000Y-72898000D02*
X137160000Y-72644000D01*
X137160000Y-72644000D02*
X138557000Y-72644000D01*
X137287000Y-66802000D02*
X136779000Y-66802000D01*
X136779000Y-66802000D02*
X135382000Y-68199000D01*
X137160000Y-72644000D02*
X137160000Y-74803000D01*
X135382000Y-70866000D02*
X137160000Y-72644000D01*
X135382000Y-68199000D02*
X135382000Y-70866000D01*
D26*
X123952000Y-62230000D02*
X123952000Y-61253000D01*
X123952000Y-61253000D02*
X125349000Y-59856000D01*
X125349000Y-59856000D02*
X125349000Y-64262000D01*
X125349000Y-64262000D02*
X126365000Y-65278000D01*
X125349000Y-57746000D02*
X125437000Y-57746000D01*
X125437000Y-57746000D02*
X126619000Y-58928000D01*
X126619000Y-58928000D02*
X126619000Y-62103000D01*
X128016000Y-56515000D02*
X128016000Y-56200000D01*
X124460000Y-52070000D02*
X124460000Y-52959000D01*
X124460000Y-52959000D02*
X122936000Y-54483000D01*
X122936000Y-55333000D02*
X125349000Y-57746000D01*
X122936000Y-54483000D02*
X122936000Y-55333000D01*
X128016000Y-56200000D02*
X128016000Y-56007000D01*
X128016000Y-56200000D02*
X125454000Y-57851000D01*
X125454000Y-57851000D02*
X125349000Y-57746000D01*
X124841000Y-52451000D02*
X124460000Y-52070000D01*
D25*
X143637000Y-75438000D02*
X143383000Y-75438000D01*
X143383000Y-75438000D02*
X137287000Y-69342000D01*
X151003000Y-60579000D02*
X148590000Y-62992000D01*
X148590000Y-62992000D02*
X144907000Y-62992000D01*
X144907000Y-62992000D02*
X143637000Y-64262000D01*
X121285000Y-57724000D02*
X121285000Y-54737000D01*
X124587000Y-49657000D02*
X127000000Y-52070000D01*
X121539000Y-49657000D02*
X124587000Y-49657000D01*
X120396000Y-50800000D02*
X121539000Y-49657000D01*
X120396000Y-53848000D02*
X120396000Y-50800000D01*
X121285000Y-54737000D02*
X120396000Y-53848000D01*
X143637000Y-64262000D02*
X137287000Y-64262000D01*
X143637000Y-64262000D02*
X140970000Y-61595000D01*
X129413000Y-49657000D02*
X127000000Y-52070000D01*
X132588000Y-49657000D02*
X129413000Y-49657000D01*
X134493000Y-51562000D02*
X132588000Y-49657000D01*
X134493000Y-60706000D02*
X134493000Y-51562000D01*
X135382000Y-61595000D02*
X134493000Y-60706000D01*
X140970000Y-61595000D02*
X135382000Y-61595000D01*
X131699000Y-55828000D02*
X131699000Y-57023000D01*
X129032000Y-67818000D02*
X132715000Y-67818000D01*
X129032000Y-59690000D02*
X129032000Y-62230000D01*
X131699000Y-57023000D02*
X129032000Y-59690000D01*
X129540000Y-53669000D02*
X128830000Y-53669000D01*
X126365000Y-54610000D02*
X125476000Y-55499000D01*
X127889000Y-54610000D02*
X126365000Y-54610000D01*
X128830000Y-53669000D02*
X127889000Y-54610000D01*
X129540000Y-52070000D02*
X129540000Y-53669000D01*
X129540000Y-53669000D02*
X131699000Y-55828000D01*
D26*
X110490000Y-68326000D02*
X108204000Y-68326000D01*
X103378000Y-73152000D02*
X103378000Y-79502000D01*
X108204000Y-68326000D02*
X103378000Y-73152000D01*
X118999000Y-67818000D02*
X110617000Y-68453000D01*
X110617000Y-68453000D02*
X110490000Y-68326000D01*
X121478000Y-69088000D02*
X120269000Y-69088000D01*
X120269000Y-69088000D02*
X118999000Y-67818000D01*
X126365000Y-67818000D02*
X118999000Y-67818000D01*
X110617000Y-68453000D02*
X110490000Y-68326000D01*
X118999000Y-62357000D02*
X119822000Y-62357000D01*
X119822000Y-62357000D02*
X123251000Y-65786000D01*
X121285000Y-59624000D02*
X121285000Y-61595000D01*
X123251000Y-63561000D02*
X123251000Y-65786000D01*
X121285000Y-61595000D02*
X123251000Y-63561000D01*
X123251000Y-65786000D02*
X124206000Y-65786000D01*
X124968000Y-66548000D02*
X126365000Y-66548000D01*
X124206000Y-65786000D02*
X124968000Y-66548000D01*
X137160000Y-78613000D02*
X137160000Y-81092000D01*
X137160000Y-81092000D02*
X137729000Y-81661000D01*
X127762000Y-78547000D02*
X130744000Y-78547000D01*
X130744000Y-78547000D02*
X130810000Y-78613000D01*
X130810000Y-78613000D02*
X130810000Y-79441000D01*
X130810000Y-79441000D02*
X132141000Y-81534000D01*
X123190000Y-85471000D02*
X112395000Y-85471000D01*
X112395000Y-85471000D02*
X110149000Y-83225000D01*
X110149000Y-83225000D02*
X110149000Y-82296000D01*
X125603000Y-71313000D02*
X120116000Y-71313000D01*
X120116000Y-71313000D02*
X110149000Y-82296000D01*
X132715000Y-69088000D02*
X132715000Y-69469000D01*
X130871000Y-71313000D02*
X125603000Y-71313000D01*
X132715000Y-69469000D02*
X130871000Y-71313000D01*
X110149000Y-82296000D02*
X110149000Y-82256000D01*
X110149000Y-82296000D02*
X110236000Y-82296000D01*
X128016000Y-58100000D02*
X127889000Y-63119000D01*
X131318000Y-66548000D02*
X132715000Y-66548000D01*
X127889000Y-63119000D02*
X131318000Y-66548000D01*
M02*
