G04 #@! TF.FileFunction,Soldermask,Top*
%FSLAX46Y46*%
G04 Gerber Fmt 4.6, Leading zero omitted, Abs format (unit mm)*
G04 Created by KiCad (PCBNEW 4.0.2-stable) date Tuesday, November 15, 2016 'AMt' 11:41:50 AM*
%MOMM*%
G01*
G04 APERTURE LIST*
%ADD10C,0.100000*%
%ADD11C,2.311400*%
%ADD12R,2.540000X2.540000*%
%ADD13O,2.540000X2.540000*%
%ADD14R,1.600000X2.800000*%
%ADD15R,0.450000X0.590000*%
%ADD16R,2.032000X1.727200*%
%ADD17O,2.032000X1.727200*%
%ADD18O,1.501140X2.499360*%
%ADD19R,0.700000X1.300000*%
%ADD20R,1.300000X0.700000*%
%ADD21C,2.000000*%
%ADD22C,2.200000*%
%ADD23R,1.143000X0.508000*%
%ADD24C,3.200000*%
%ADD25C,1.500000*%
%ADD26R,3.200000X1.000000*%
G04 APERTURE END LIST*
D10*
D11*
X114300000Y-48260000D03*
X139700000Y-48260000D03*
D12*
X143637000Y-64262000D03*
D13*
X143637000Y-69342000D03*
D14*
X122809000Y-76590000D03*
X122809000Y-80890000D03*
D15*
X125349000Y-59856000D03*
X125349000Y-57746000D03*
D12*
X143637000Y-75438000D03*
D13*
X143637000Y-80518000D03*
D16*
X137287000Y-69342000D03*
D17*
X137287000Y-66802000D03*
X137287000Y-64262000D03*
D18*
X127000000Y-52070000D03*
X124460000Y-52070000D03*
X129540000Y-52070000D03*
D19*
X123378000Y-69088000D03*
X121478000Y-69088000D03*
D20*
X121285000Y-57724000D03*
X121285000Y-59624000D03*
D19*
X123251000Y-65786000D03*
X121351000Y-65786000D03*
X137729000Y-81661000D03*
X135829000Y-81661000D03*
X130241000Y-81534000D03*
X132141000Y-81534000D03*
D20*
X127762000Y-78547000D03*
X127762000Y-76647000D03*
X125603000Y-73213000D03*
X125603000Y-71313000D03*
X128016000Y-56200000D03*
X128016000Y-58100000D03*
D21*
X110490000Y-70826000D03*
X110490000Y-68326000D03*
X110490000Y-65826000D03*
D22*
X113790000Y-73426000D03*
X113790000Y-63226000D03*
D21*
X115149000Y-82296000D03*
X112649000Y-82296000D03*
X110149000Y-82296000D03*
D22*
X117749000Y-78996000D03*
X107549000Y-78996000D03*
D23*
X132715000Y-65278000D03*
X132715000Y-66548000D03*
X132715000Y-67818000D03*
X132715000Y-69088000D03*
X126365000Y-69088000D03*
X126365000Y-67818000D03*
X126365000Y-66548000D03*
X126365000Y-65278000D03*
X137160000Y-74803000D03*
X137160000Y-76073000D03*
X137160000Y-77343000D03*
X137160000Y-78613000D03*
X130810000Y-78613000D03*
X130810000Y-77343000D03*
X130810000Y-76073000D03*
X130810000Y-74803000D03*
D24*
X150749000Y-32893000D03*
X103251000Y-32893000D03*
X150749000Y-87249000D03*
X103251000Y-87249000D03*
D25*
X151003000Y-60579000D03*
X103378000Y-79502000D03*
X123952000Y-62230000D03*
X118999000Y-62357000D03*
X133858000Y-72644000D03*
X128778000Y-85344000D03*
X123190000Y-85471000D03*
X125476000Y-55499000D03*
X126619000Y-62103000D03*
D26*
X131699000Y-55828000D03*
X131699000Y-62028000D03*
D25*
X143637000Y-87503000D03*
M02*
