G04 #@! TF.FileFunction,Legend,Top*
%FSLAX46Y46*%
G04 Gerber Fmt 4.6, Leading zero omitted, Abs format (unit mm)*
G04 Created by KiCad (PCBNEW 4.0.2-stable) date Tuesday, November 15, 2016 'AMt' 11:41:50 AM*
%MOMM*%
G01*
G04 APERTURE LIST*
%ADD10C,0.100000*%
%ADD11C,0.300000*%
%ADD12C,0.150000*%
%ADD13C,2.311400*%
%ADD14R,2.540000X2.540000*%
%ADD15O,2.540000X2.540000*%
%ADD16R,1.600000X2.800000*%
%ADD17R,0.450000X0.590000*%
%ADD18R,2.032000X1.727200*%
%ADD19O,2.032000X1.727200*%
%ADD20O,1.501140X2.499360*%
%ADD21R,0.700000X1.300000*%
%ADD22R,1.300000X0.700000*%
%ADD23C,2.000000*%
%ADD24C,2.200000*%
%ADD25R,1.143000X0.508000*%
%ADD26C,3.200000*%
%ADD27C,1.500000*%
%ADD28R,3.200000X1.000000*%
G04 APERTURE END LIST*
D10*
D11*
X104597857Y-64095858D02*
X104597857Y-65238715D01*
X104597857Y-71667286D02*
X104597857Y-72810143D01*
X104026429Y-72238714D02*
X105169286Y-72238714D01*
X103126429Y-62417286D02*
X101626429Y-62917286D01*
X103126429Y-63417286D01*
X101626429Y-64131572D02*
X101697857Y-63988714D01*
X101769286Y-63917286D01*
X101912143Y-63845857D01*
X102340714Y-63845857D01*
X102483571Y-63917286D01*
X102555000Y-63988714D01*
X102626429Y-64131572D01*
X102626429Y-64345857D01*
X102555000Y-64488714D01*
X102483571Y-64560143D01*
X102340714Y-64631572D01*
X101912143Y-64631572D01*
X101769286Y-64560143D01*
X101697857Y-64488714D01*
X101626429Y-64345857D01*
X101626429Y-64131572D01*
X101626429Y-65488715D02*
X101697857Y-65345857D01*
X101840714Y-65274429D01*
X103126429Y-65274429D01*
X102626429Y-65845857D02*
X102626429Y-66417286D01*
X103126429Y-66060143D02*
X101840714Y-66060143D01*
X101697857Y-66131571D01*
X101626429Y-66274429D01*
X101626429Y-66417286D01*
X101626429Y-67560143D02*
X102412143Y-67560143D01*
X102555000Y-67488714D01*
X102626429Y-67345857D01*
X102626429Y-67060143D01*
X102555000Y-66917286D01*
X101697857Y-67560143D02*
X101626429Y-67417286D01*
X101626429Y-67060143D01*
X101697857Y-66917286D01*
X101840714Y-66845857D01*
X101983571Y-66845857D01*
X102126429Y-66917286D01*
X102197857Y-67060143D01*
X102197857Y-67417286D01*
X102269286Y-67560143D01*
X102626429Y-68917286D02*
X101412143Y-68917286D01*
X101269286Y-68845857D01*
X101197857Y-68774429D01*
X101126429Y-68631572D01*
X101126429Y-68417286D01*
X101197857Y-68274429D01*
X101697857Y-68917286D02*
X101626429Y-68774429D01*
X101626429Y-68488715D01*
X101697857Y-68345857D01*
X101769286Y-68274429D01*
X101912143Y-68203000D01*
X102340714Y-68203000D01*
X102483571Y-68274429D01*
X102555000Y-68345857D01*
X102626429Y-68488715D01*
X102626429Y-68774429D01*
X102555000Y-68917286D01*
X101697857Y-70203000D02*
X101626429Y-70060143D01*
X101626429Y-69774429D01*
X101697857Y-69631572D01*
X101840714Y-69560143D01*
X102412143Y-69560143D01*
X102555000Y-69631572D01*
X102626429Y-69774429D01*
X102626429Y-70060143D01*
X102555000Y-70203000D01*
X102412143Y-70274429D01*
X102269286Y-70274429D01*
X102126429Y-69560143D01*
X101769286Y-71774429D02*
X101697857Y-71703000D01*
X101626429Y-71488714D01*
X101626429Y-71345857D01*
X101697857Y-71131572D01*
X101840714Y-70988714D01*
X101983571Y-70917286D01*
X102269286Y-70845857D01*
X102483571Y-70845857D01*
X102769286Y-70917286D01*
X102912143Y-70988714D01*
X103055000Y-71131572D01*
X103126429Y-71345857D01*
X103126429Y-71488714D01*
X103055000Y-71703000D01*
X102983571Y-71774429D01*
X102626429Y-72203000D02*
X102626429Y-72774429D01*
X103126429Y-72417286D02*
X101840714Y-72417286D01*
X101697857Y-72488714D01*
X101626429Y-72631572D01*
X101626429Y-72774429D01*
X101626429Y-73274429D02*
X102626429Y-73274429D01*
X102340714Y-73274429D02*
X102483571Y-73345857D01*
X102555000Y-73417286D01*
X102626429Y-73560143D01*
X102626429Y-73703000D01*
X101626429Y-74417286D02*
X101697857Y-74274428D01*
X101840714Y-74203000D01*
X103126429Y-74203000D01*
X108418858Y-87426143D02*
X109561715Y-87426143D01*
X115990286Y-87426143D02*
X117133143Y-87426143D01*
X116561714Y-87997571D02*
X116561714Y-86854714D01*
X107847430Y-90254714D02*
X107776001Y-90326143D01*
X107561715Y-90397571D01*
X107418858Y-90397571D01*
X107204573Y-90326143D01*
X107061715Y-90183286D01*
X106990287Y-90040429D01*
X106918858Y-89754714D01*
X106918858Y-89540429D01*
X106990287Y-89254714D01*
X107061715Y-89111857D01*
X107204573Y-88969000D01*
X107418858Y-88897571D01*
X107561715Y-88897571D01*
X107776001Y-88969000D01*
X107847430Y-89040429D01*
X109133144Y-89397571D02*
X109133144Y-90397571D01*
X108490287Y-89397571D02*
X108490287Y-90183286D01*
X108561715Y-90326143D01*
X108704573Y-90397571D01*
X108918858Y-90397571D01*
X109061715Y-90326143D01*
X109133144Y-90254714D01*
X109847430Y-90397571D02*
X109847430Y-89397571D01*
X109847430Y-89683286D02*
X109918858Y-89540429D01*
X109990287Y-89469000D01*
X110133144Y-89397571D01*
X110276001Y-89397571D01*
X110776001Y-90397571D02*
X110776001Y-89397571D01*
X110776001Y-89683286D02*
X110847429Y-89540429D01*
X110918858Y-89469000D01*
X111061715Y-89397571D01*
X111204572Y-89397571D01*
X112276000Y-90326143D02*
X112133143Y-90397571D01*
X111847429Y-90397571D01*
X111704572Y-90326143D01*
X111633143Y-90183286D01*
X111633143Y-89611857D01*
X111704572Y-89469000D01*
X111847429Y-89397571D01*
X112133143Y-89397571D01*
X112276000Y-89469000D01*
X112347429Y-89611857D01*
X112347429Y-89754714D01*
X111633143Y-89897571D01*
X112990286Y-89397571D02*
X112990286Y-90397571D01*
X112990286Y-89540429D02*
X113061714Y-89469000D01*
X113204572Y-89397571D01*
X113418857Y-89397571D01*
X113561714Y-89469000D01*
X113633143Y-89611857D01*
X113633143Y-90397571D01*
X114133143Y-89397571D02*
X114704572Y-89397571D01*
X114347429Y-88897571D02*
X114347429Y-90183286D01*
X114418857Y-90326143D01*
X114561715Y-90397571D01*
X114704572Y-90397571D01*
X116061715Y-90254714D02*
X115990286Y-90326143D01*
X115776000Y-90397571D01*
X115633143Y-90397571D01*
X115418858Y-90326143D01*
X115276000Y-90183286D01*
X115204572Y-90040429D01*
X115133143Y-89754714D01*
X115133143Y-89540429D01*
X115204572Y-89254714D01*
X115276000Y-89111857D01*
X115418858Y-88969000D01*
X115633143Y-88897571D01*
X115776000Y-88897571D01*
X115990286Y-88969000D01*
X116061715Y-89040429D01*
X116490286Y-89397571D02*
X117061715Y-89397571D01*
X116704572Y-88897571D02*
X116704572Y-90183286D01*
X116776000Y-90326143D01*
X116918858Y-90397571D01*
X117061715Y-90397571D01*
X117561715Y-90397571D02*
X117561715Y-89397571D01*
X117561715Y-89683286D02*
X117633143Y-89540429D01*
X117704572Y-89469000D01*
X117847429Y-89397571D01*
X117990286Y-89397571D01*
X118704572Y-90397571D02*
X118561714Y-90326143D01*
X118490286Y-90183286D01*
X118490286Y-88897571D01*
X149148143Y-69889285D02*
X149148143Y-68746428D01*
X149148143Y-64603571D02*
X149148143Y-63460714D01*
X149719571Y-64032143D02*
X148576714Y-64032143D01*
X152119571Y-69139286D02*
X150619571Y-69139286D01*
X151119571Y-68425000D02*
X152119571Y-68425000D01*
X151262429Y-68425000D02*
X151191000Y-68353572D01*
X151119571Y-68210714D01*
X151119571Y-67996429D01*
X151191000Y-67853572D01*
X151333857Y-67782143D01*
X152119571Y-67782143D01*
X151119571Y-67067857D02*
X152619571Y-67067857D01*
X151191000Y-67067857D02*
X151119571Y-66925000D01*
X151119571Y-66639286D01*
X151191000Y-66496429D01*
X151262429Y-66425000D01*
X151405286Y-66353571D01*
X151833857Y-66353571D01*
X151976714Y-66425000D01*
X152048143Y-66496429D01*
X152119571Y-66639286D01*
X152119571Y-66925000D01*
X152048143Y-67067857D01*
X151119571Y-65067857D02*
X152119571Y-65067857D01*
X151119571Y-65710714D02*
X151905286Y-65710714D01*
X152048143Y-65639286D01*
X152119571Y-65496428D01*
X152119571Y-65282143D01*
X152048143Y-65139286D01*
X151976714Y-65067857D01*
X151119571Y-64567857D02*
X151119571Y-63996428D01*
X150619571Y-64353571D02*
X151905286Y-64353571D01*
X152048143Y-64282143D01*
X152119571Y-64139285D01*
X152119571Y-63996428D01*
X149021143Y-81319285D02*
X149021143Y-80176428D01*
X149021143Y-76033571D02*
X149021143Y-74890714D01*
X149592571Y-75462143D02*
X148449714Y-75462143D01*
X151564000Y-82319286D02*
X151564000Y-81605000D01*
X151992571Y-82462143D02*
X150492571Y-81962143D01*
X151992571Y-81462143D01*
X150992571Y-80319286D02*
X151992571Y-80319286D01*
X150992571Y-80962143D02*
X151778286Y-80962143D01*
X151921143Y-80890715D01*
X151992571Y-80747857D01*
X151992571Y-80533572D01*
X151921143Y-80390715D01*
X151849714Y-80319286D01*
X151992571Y-79747857D02*
X150992571Y-78962143D01*
X150992571Y-79747857D02*
X151992571Y-78962143D01*
X151992571Y-77247857D02*
X150492571Y-77247857D01*
X150492571Y-76676429D01*
X150564000Y-76533571D01*
X150635429Y-76462143D01*
X150778286Y-76390714D01*
X150992571Y-76390714D01*
X151135429Y-76462143D01*
X151206857Y-76533571D01*
X151278286Y-76676429D01*
X151278286Y-77247857D01*
X150992571Y-75890714D02*
X151992571Y-75605000D01*
X151278286Y-75319286D01*
X151992571Y-75033571D01*
X150992571Y-74747857D01*
X151992571Y-74176428D02*
X150992571Y-74176428D01*
X151278286Y-74176428D02*
X151135429Y-74105000D01*
X151064000Y-74033571D01*
X150992571Y-73890714D01*
X150992571Y-73747857D01*
D12*
X118503700Y-60706000D02*
X106197400Y-60706000D01*
X147802600Y-60706000D02*
X135496300Y-60706000D01*
X135496300Y-35814000D02*
X147802600Y-35814000D01*
X106197400Y-35814000D02*
X118503700Y-35814000D01*
X135496300Y-49009300D02*
X135496300Y-60706000D01*
X118503700Y-49009300D02*
X118503700Y-60706000D01*
X118503700Y-47510700D02*
X118503700Y-35814000D01*
X135496300Y-47510700D02*
X135496300Y-35814000D01*
X118503700Y-49009300D02*
X135496300Y-49009300D01*
X118503700Y-47510700D02*
X135496300Y-47510700D01*
X147802600Y-35814000D02*
X147802600Y-60706000D01*
X106197400Y-60706000D02*
X106197400Y-35814000D01*
X147828000Y-61214000D02*
X139446000Y-61214000D01*
X139446000Y-62992000D02*
X139446000Y-66802000D01*
X139446000Y-61214000D02*
X139446000Y-72390000D01*
X139446000Y-72390000D02*
X147828000Y-72390000D01*
X147828000Y-72390000D02*
X147828000Y-61214000D01*
X121659000Y-76590000D02*
X120659000Y-77590000D01*
X124959000Y-77590000D02*
X123959000Y-76590000D01*
X121659000Y-80890000D02*
X120659000Y-80890000D01*
X120659000Y-80890000D02*
X120659000Y-79890000D01*
X124959000Y-80890000D02*
X123959000Y-80890000D01*
X124959000Y-80890000D02*
X124959000Y-79890000D01*
X125349000Y-58551000D02*
X125349000Y-58301000D01*
X125349000Y-59051000D02*
X125349000Y-59301000D01*
X125349000Y-59051000D02*
X124999000Y-58551000D01*
X124999000Y-58551000D02*
X125699000Y-58551000D01*
X125699000Y-58551000D02*
X125349000Y-59051000D01*
X124999000Y-59051000D02*
X125699000Y-59051000D01*
X126149000Y-60101000D02*
X126149000Y-57701000D01*
X124549000Y-60101000D02*
X124549000Y-57701000D01*
X147828000Y-72390000D02*
X139446000Y-72390000D01*
X139446000Y-74168000D02*
X139446000Y-77978000D01*
X139446000Y-72390000D02*
X139446000Y-83566000D01*
X139446000Y-83566000D02*
X147828000Y-83566000D01*
X147828000Y-83566000D02*
X147828000Y-72390000D01*
X138557000Y-68072000D02*
X138557000Y-62992000D01*
X138557000Y-62992000D02*
X136017000Y-62992000D01*
X136017000Y-62992000D02*
X136017000Y-68072000D01*
X135737000Y-70892000D02*
X135737000Y-69342000D01*
X136017000Y-68072000D02*
X138557000Y-68072000D01*
X138837000Y-69342000D02*
X138837000Y-70892000D01*
X138837000Y-70892000D02*
X135737000Y-70892000D01*
X125476000Y-49022000D02*
X125476000Y-50165000D01*
X128524000Y-49022000D02*
X128524000Y-50165000D01*
X132334000Y-50165000D02*
X132334000Y-53848000D01*
X132334000Y-53848000D02*
X121666000Y-53848000D01*
X121666000Y-53848000D02*
X121666000Y-50165000D01*
X132334000Y-49022000D02*
X132334000Y-50165000D01*
X132334000Y-50165000D02*
X121666000Y-50165000D01*
X121666000Y-50165000D02*
X121666000Y-49022000D01*
X127000000Y-49022000D02*
X121666000Y-49022000D01*
X127000000Y-49022000D02*
X132334000Y-49022000D01*
X121828000Y-68213000D02*
X123028000Y-68213000D01*
X123028000Y-69963000D02*
X121828000Y-69963000D01*
X120410000Y-59274000D02*
X120410000Y-58074000D01*
X122160000Y-58074000D02*
X122160000Y-59274000D01*
X121701000Y-64911000D02*
X122901000Y-64911000D01*
X122901000Y-66661000D02*
X121701000Y-66661000D01*
X136179000Y-80786000D02*
X137379000Y-80786000D01*
X137379000Y-82536000D02*
X136179000Y-82536000D01*
X131791000Y-82409000D02*
X130591000Y-82409000D01*
X130591000Y-80659000D02*
X131791000Y-80659000D01*
X128637000Y-76997000D02*
X128637000Y-78197000D01*
X126887000Y-78197000D02*
X126887000Y-76997000D01*
X126478000Y-71663000D02*
X126478000Y-72863000D01*
X124728000Y-72863000D02*
X124728000Y-71663000D01*
X127141000Y-57750000D02*
X127141000Y-56550000D01*
X128891000Y-56550000D02*
X128891000Y-57750000D01*
X116390000Y-63426000D02*
X116390000Y-73226000D01*
X106990000Y-63426000D02*
X106990000Y-73226000D01*
X116390000Y-73226000D02*
X106990000Y-73226000D01*
X116390000Y-63426000D02*
X106990000Y-63426000D01*
X107749000Y-76396000D02*
X117549000Y-76396000D01*
X107749000Y-85796000D02*
X117549000Y-85796000D01*
X117549000Y-76396000D02*
X117549000Y-85796000D01*
X107749000Y-76396000D02*
X107749000Y-85796000D01*
X131826000Y-64643000D02*
X131826000Y-69723000D01*
X131826000Y-69723000D02*
X127254000Y-69723000D01*
X127254000Y-69723000D02*
X127254000Y-64643000D01*
X127254000Y-64643000D02*
X131826000Y-64643000D01*
X130302000Y-64643000D02*
X130302000Y-65151000D01*
X130302000Y-65151000D02*
X129032000Y-65151000D01*
X129032000Y-65151000D02*
X129032000Y-64643000D01*
X136271000Y-74168000D02*
X136271000Y-79248000D01*
X136271000Y-79248000D02*
X131699000Y-79248000D01*
X131699000Y-79248000D02*
X131699000Y-74168000D01*
X131699000Y-74168000D02*
X136271000Y-74168000D01*
X134747000Y-74168000D02*
X134747000Y-74676000D01*
X134747000Y-74676000D02*
X133477000Y-74676000D01*
X133477000Y-74676000D02*
X133477000Y-74168000D01*
X129874000Y-61528000D02*
X129874000Y-56328000D01*
X133524000Y-56328000D02*
X133524000Y-61528000D01*
X125892858Y-45128571D02*
X125892858Y-43628571D01*
X126464286Y-43628571D01*
X126607144Y-43700000D01*
X126678572Y-43771429D01*
X126750001Y-43914286D01*
X126750001Y-44128571D01*
X126678572Y-44271429D01*
X126607144Y-44342857D01*
X126464286Y-44414286D01*
X125892858Y-44414286D01*
X128178572Y-45128571D02*
X127321429Y-45128571D01*
X127750001Y-45128571D02*
X127750001Y-43628571D01*
X127607144Y-43842857D01*
X127464286Y-43985714D01*
X127321429Y-44057143D01*
X147010381Y-68365476D02*
X146010381Y-68365476D01*
X146010381Y-67984523D01*
X146058000Y-67889285D01*
X146105619Y-67841666D01*
X146200857Y-67794047D01*
X146343714Y-67794047D01*
X146438952Y-67841666D01*
X146486571Y-67889285D01*
X146534190Y-67984523D01*
X146534190Y-68365476D01*
X147010381Y-66841666D02*
X147010381Y-67413095D01*
X147010381Y-67127381D02*
X146010381Y-67127381D01*
X146153238Y-67222619D01*
X146248476Y-67317857D01*
X146296095Y-67413095D01*
X146010381Y-66222619D02*
X146010381Y-66127380D01*
X146058000Y-66032142D01*
X146105619Y-65984523D01*
X146200857Y-65936904D01*
X146391333Y-65889285D01*
X146629429Y-65889285D01*
X146819905Y-65936904D01*
X146915143Y-65984523D01*
X146962762Y-66032142D01*
X147010381Y-66127380D01*
X147010381Y-66222619D01*
X146962762Y-66317857D01*
X146915143Y-66365476D01*
X146819905Y-66413095D01*
X146629429Y-66460714D01*
X146391333Y-66460714D01*
X146200857Y-66413095D01*
X146105619Y-66365476D01*
X146058000Y-66317857D01*
X146010381Y-66222619D01*
X146010381Y-65555952D02*
X146010381Y-64936904D01*
X146391333Y-65270238D01*
X146391333Y-65127380D01*
X146438952Y-65032142D01*
X146486571Y-64984523D01*
X146581810Y-64936904D01*
X146819905Y-64936904D01*
X146915143Y-64984523D01*
X146962762Y-65032142D01*
X147010381Y-65127380D01*
X147010381Y-65413095D01*
X146962762Y-65508333D01*
X146915143Y-65555952D01*
X124991953Y-82272143D02*
X124944334Y-82319762D01*
X124801477Y-82367381D01*
X124706239Y-82367381D01*
X124563381Y-82319762D01*
X124468143Y-82224524D01*
X124420524Y-82129286D01*
X124372905Y-81938810D01*
X124372905Y-81795952D01*
X124420524Y-81605476D01*
X124468143Y-81510238D01*
X124563381Y-81415000D01*
X124706239Y-81367381D01*
X124801477Y-81367381D01*
X124944334Y-81415000D01*
X124991953Y-81462619D01*
X125325286Y-81367381D02*
X125944334Y-81367381D01*
X125611000Y-81748333D01*
X125753858Y-81748333D01*
X125849096Y-81795952D01*
X125896715Y-81843571D01*
X125944334Y-81938810D01*
X125944334Y-82176905D01*
X125896715Y-82272143D01*
X125849096Y-82319762D01*
X125753858Y-82367381D01*
X125468143Y-82367381D01*
X125372905Y-82319762D01*
X125325286Y-82272143D01*
X126563381Y-81367381D02*
X126658620Y-81367381D01*
X126753858Y-81415000D01*
X126801477Y-81462619D01*
X126849096Y-81557857D01*
X126896715Y-81748333D01*
X126896715Y-81986429D01*
X126849096Y-82176905D01*
X126801477Y-82272143D01*
X126753858Y-82319762D01*
X126658620Y-82367381D01*
X126563381Y-82367381D01*
X126468143Y-82319762D01*
X126420524Y-82272143D01*
X126372905Y-82176905D01*
X126325286Y-81986429D01*
X126325286Y-81748333D01*
X126372905Y-81557857D01*
X126420524Y-81462619D01*
X126468143Y-81415000D01*
X126563381Y-81367381D01*
X127277667Y-81462619D02*
X127325286Y-81415000D01*
X127420524Y-81367381D01*
X127658620Y-81367381D01*
X127753858Y-81415000D01*
X127801477Y-81462619D01*
X127849096Y-81557857D01*
X127849096Y-81653095D01*
X127801477Y-81795952D01*
X127230048Y-82367381D01*
X127849096Y-82367381D01*
X120578048Y-81811429D02*
X121339953Y-81811429D01*
X120578048Y-76261429D02*
X121339953Y-76261429D01*
X120959001Y-76642381D02*
X120959001Y-75880476D01*
X123951381Y-60491476D02*
X122951381Y-60491476D01*
X122951381Y-60253381D01*
X122999000Y-60110523D01*
X123094238Y-60015285D01*
X123189476Y-59967666D01*
X123379952Y-59920047D01*
X123522810Y-59920047D01*
X123713286Y-59967666D01*
X123808524Y-60015285D01*
X123903762Y-60110523D01*
X123951381Y-60253381D01*
X123951381Y-60491476D01*
X123046619Y-59539095D02*
X122999000Y-59491476D01*
X122951381Y-59396238D01*
X122951381Y-59158142D01*
X122999000Y-59062904D01*
X123046619Y-59015285D01*
X123141857Y-58967666D01*
X123237095Y-58967666D01*
X123379952Y-59015285D01*
X123951381Y-59586714D01*
X123951381Y-58967666D01*
X122951381Y-58348619D02*
X122951381Y-58253380D01*
X122999000Y-58158142D01*
X123046619Y-58110523D01*
X123141857Y-58062904D01*
X123332333Y-58015285D01*
X123570429Y-58015285D01*
X123760905Y-58062904D01*
X123856143Y-58110523D01*
X123903762Y-58158142D01*
X123951381Y-58253380D01*
X123951381Y-58348619D01*
X123903762Y-58443857D01*
X123856143Y-58491476D01*
X123760905Y-58539095D01*
X123570429Y-58586714D01*
X123332333Y-58586714D01*
X123141857Y-58539095D01*
X123046619Y-58491476D01*
X122999000Y-58443857D01*
X122951381Y-58348619D01*
X123951381Y-57062904D02*
X123951381Y-57634333D01*
X123951381Y-57348619D02*
X122951381Y-57348619D01*
X123094238Y-57443857D01*
X123189476Y-57539095D01*
X123237095Y-57634333D01*
X147010381Y-79541476D02*
X146010381Y-79541476D01*
X146010381Y-79160523D01*
X146058000Y-79065285D01*
X146105619Y-79017666D01*
X146200857Y-78970047D01*
X146343714Y-78970047D01*
X146438952Y-79017666D01*
X146486571Y-79065285D01*
X146534190Y-79160523D01*
X146534190Y-79541476D01*
X147010381Y-78017666D02*
X147010381Y-78589095D01*
X147010381Y-78303381D02*
X146010381Y-78303381D01*
X146153238Y-78398619D01*
X146248476Y-78493857D01*
X146296095Y-78589095D01*
X146010381Y-77398619D02*
X146010381Y-77303380D01*
X146058000Y-77208142D01*
X146105619Y-77160523D01*
X146200857Y-77112904D01*
X146391333Y-77065285D01*
X146629429Y-77065285D01*
X146819905Y-77112904D01*
X146915143Y-77160523D01*
X146962762Y-77208142D01*
X147010381Y-77303380D01*
X147010381Y-77398619D01*
X146962762Y-77493857D01*
X146915143Y-77541476D01*
X146819905Y-77589095D01*
X146629429Y-77636714D01*
X146391333Y-77636714D01*
X146200857Y-77589095D01*
X146105619Y-77541476D01*
X146058000Y-77493857D01*
X146010381Y-77398619D01*
X147010381Y-76112904D02*
X147010381Y-76684333D01*
X147010381Y-76398619D02*
X146010381Y-76398619D01*
X146153238Y-76493857D01*
X146248476Y-76589095D01*
X146296095Y-76684333D01*
X135596524Y-72461381D02*
X135596524Y-71461381D01*
X135977477Y-71461381D01*
X136072715Y-71509000D01*
X136120334Y-71556619D01*
X136167953Y-71651857D01*
X136167953Y-71794714D01*
X136120334Y-71889952D01*
X136072715Y-71937571D01*
X135977477Y-71985190D01*
X135596524Y-71985190D01*
X137120334Y-72461381D02*
X136548905Y-72461381D01*
X136834619Y-72461381D02*
X136834619Y-71461381D01*
X136739381Y-71604238D01*
X136644143Y-71699476D01*
X136548905Y-71747095D01*
X137739381Y-71461381D02*
X137834620Y-71461381D01*
X137929858Y-71509000D01*
X137977477Y-71556619D01*
X138025096Y-71651857D01*
X138072715Y-71842333D01*
X138072715Y-72080429D01*
X138025096Y-72270905D01*
X137977477Y-72366143D01*
X137929858Y-72413762D01*
X137834620Y-72461381D01*
X137739381Y-72461381D01*
X137644143Y-72413762D01*
X137596524Y-72366143D01*
X137548905Y-72270905D01*
X137501286Y-72080429D01*
X137501286Y-71842333D01*
X137548905Y-71651857D01*
X137596524Y-71556619D01*
X137644143Y-71509000D01*
X137739381Y-71461381D01*
X138453667Y-71556619D02*
X138501286Y-71509000D01*
X138596524Y-71461381D01*
X138834620Y-71461381D01*
X138929858Y-71509000D01*
X138977477Y-71556619D01*
X139025096Y-71651857D01*
X139025096Y-71747095D01*
X138977477Y-71889952D01*
X138406048Y-72461381D01*
X139025096Y-72461381D01*
X121324619Y-53879619D02*
X121277000Y-53974857D01*
X121181762Y-54070095D01*
X121038905Y-54212952D01*
X120991286Y-54308191D01*
X120991286Y-54403429D01*
X121229381Y-54355810D02*
X121181762Y-54451048D01*
X121086524Y-54546286D01*
X120896048Y-54593905D01*
X120562714Y-54593905D01*
X120372238Y-54546286D01*
X120277000Y-54451048D01*
X120229381Y-54355810D01*
X120229381Y-54165333D01*
X120277000Y-54070095D01*
X120372238Y-53974857D01*
X120562714Y-53927238D01*
X120896048Y-53927238D01*
X121086524Y-53974857D01*
X121181762Y-54070095D01*
X121229381Y-54165333D01*
X121229381Y-54355810D01*
X120562714Y-53070095D02*
X121229381Y-53070095D01*
X120181762Y-53308191D02*
X120896048Y-53546286D01*
X120896048Y-52927238D01*
X120229381Y-52355810D02*
X120229381Y-52260571D01*
X120277000Y-52165333D01*
X120324619Y-52117714D01*
X120419857Y-52070095D01*
X120610333Y-52022476D01*
X120848429Y-52022476D01*
X121038905Y-52070095D01*
X121134143Y-52117714D01*
X121181762Y-52165333D01*
X121229381Y-52260571D01*
X121229381Y-52355810D01*
X121181762Y-52451048D01*
X121134143Y-52498667D01*
X121038905Y-52546286D01*
X120848429Y-52593905D01*
X120610333Y-52593905D01*
X120419857Y-52546286D01*
X120324619Y-52498667D01*
X120277000Y-52451048D01*
X120229381Y-52355810D01*
X121229381Y-51070095D02*
X121229381Y-51641524D01*
X121229381Y-51355810D02*
X120229381Y-51355810D01*
X120372238Y-51451048D01*
X120467476Y-51546286D01*
X120515095Y-51641524D01*
X128111286Y-51204762D02*
X128254143Y-51252381D01*
X128492239Y-51252381D01*
X128587477Y-51204762D01*
X128635096Y-51157143D01*
X128682715Y-51061905D01*
X128682715Y-50966667D01*
X128635096Y-50871429D01*
X128587477Y-50823810D01*
X128492239Y-50776190D01*
X128301762Y-50728571D01*
X128206524Y-50680952D01*
X128158905Y-50633333D01*
X128111286Y-50538095D01*
X128111286Y-50442857D01*
X128158905Y-50347619D01*
X128206524Y-50300000D01*
X128301762Y-50252381D01*
X128539858Y-50252381D01*
X128682715Y-50300000D01*
X125595095Y-51252381D02*
X125595095Y-50252381D01*
X125833190Y-50252381D01*
X125976048Y-50300000D01*
X126071286Y-50395238D01*
X126118905Y-50490476D01*
X126166524Y-50680952D01*
X126166524Y-50823810D01*
X126118905Y-51014286D01*
X126071286Y-51109524D01*
X125976048Y-51204762D01*
X125833190Y-51252381D01*
X125595095Y-51252381D01*
X123451905Y-50300000D02*
X123356667Y-50252381D01*
X123213810Y-50252381D01*
X123070952Y-50300000D01*
X122975714Y-50395238D01*
X122928095Y-50490476D01*
X122880476Y-50680952D01*
X122880476Y-50823810D01*
X122928095Y-51014286D01*
X122975714Y-51109524D01*
X123070952Y-51204762D01*
X123213810Y-51252381D01*
X123309048Y-51252381D01*
X123451905Y-51204762D01*
X123499524Y-51157143D01*
X123499524Y-50823810D01*
X123309048Y-50823810D01*
X117625953Y-68905381D02*
X117292619Y-68429190D01*
X117054524Y-68905381D02*
X117054524Y-67905381D01*
X117435477Y-67905381D01*
X117530715Y-67953000D01*
X117578334Y-68000619D01*
X117625953Y-68095857D01*
X117625953Y-68238714D01*
X117578334Y-68333952D01*
X117530715Y-68381571D01*
X117435477Y-68429190D01*
X117054524Y-68429190D01*
X118006905Y-68000619D02*
X118054524Y-67953000D01*
X118149762Y-67905381D01*
X118387858Y-67905381D01*
X118483096Y-67953000D01*
X118530715Y-68000619D01*
X118578334Y-68095857D01*
X118578334Y-68191095D01*
X118530715Y-68333952D01*
X117959286Y-68905381D01*
X118578334Y-68905381D01*
X119197381Y-67905381D02*
X119292620Y-67905381D01*
X119387858Y-67953000D01*
X119435477Y-68000619D01*
X119483096Y-68095857D01*
X119530715Y-68286333D01*
X119530715Y-68524429D01*
X119483096Y-68714905D01*
X119435477Y-68810143D01*
X119387858Y-68857762D01*
X119292620Y-68905381D01*
X119197381Y-68905381D01*
X119102143Y-68857762D01*
X119054524Y-68810143D01*
X119006905Y-68714905D01*
X118959286Y-68524429D01*
X118959286Y-68286333D01*
X119006905Y-68095857D01*
X119054524Y-68000619D01*
X119102143Y-67953000D01*
X119197381Y-67905381D01*
X120483096Y-68905381D02*
X119911667Y-68905381D01*
X120197381Y-68905381D02*
X120197381Y-67905381D01*
X120102143Y-68048238D01*
X120006905Y-68143476D01*
X119911667Y-68191095D01*
X119959381Y-59793047D02*
X119483190Y-60126381D01*
X119959381Y-60364476D02*
X118959381Y-60364476D01*
X118959381Y-59983523D01*
X119007000Y-59888285D01*
X119054619Y-59840666D01*
X119149857Y-59793047D01*
X119292714Y-59793047D01*
X119387952Y-59840666D01*
X119435571Y-59888285D01*
X119483190Y-59983523D01*
X119483190Y-60364476D01*
X119054619Y-59412095D02*
X119007000Y-59364476D01*
X118959381Y-59269238D01*
X118959381Y-59031142D01*
X119007000Y-58935904D01*
X119054619Y-58888285D01*
X119149857Y-58840666D01*
X119245095Y-58840666D01*
X119387952Y-58888285D01*
X119959381Y-59459714D01*
X119959381Y-58840666D01*
X118959381Y-58221619D02*
X118959381Y-58126380D01*
X119007000Y-58031142D01*
X119054619Y-57983523D01*
X119149857Y-57935904D01*
X119340333Y-57888285D01*
X119578429Y-57888285D01*
X119768905Y-57935904D01*
X119864143Y-57983523D01*
X119911762Y-58031142D01*
X119959381Y-58126380D01*
X119959381Y-58221619D01*
X119911762Y-58316857D01*
X119864143Y-58364476D01*
X119768905Y-58412095D01*
X119578429Y-58459714D01*
X119340333Y-58459714D01*
X119149857Y-58412095D01*
X119054619Y-58364476D01*
X119007000Y-58316857D01*
X118959381Y-58221619D01*
X119054619Y-57507333D02*
X119007000Y-57459714D01*
X118959381Y-57364476D01*
X118959381Y-57126380D01*
X119007000Y-57031142D01*
X119054619Y-56983523D01*
X119149857Y-56935904D01*
X119245095Y-56935904D01*
X119387952Y-56983523D01*
X119959381Y-57554952D01*
X119959381Y-56935904D01*
X120673953Y-64460381D02*
X120340619Y-63984190D01*
X120102524Y-64460381D02*
X120102524Y-63460381D01*
X120483477Y-63460381D01*
X120578715Y-63508000D01*
X120626334Y-63555619D01*
X120673953Y-63650857D01*
X120673953Y-63793714D01*
X120626334Y-63888952D01*
X120578715Y-63936571D01*
X120483477Y-63984190D01*
X120102524Y-63984190D01*
X121054905Y-63555619D02*
X121102524Y-63508000D01*
X121197762Y-63460381D01*
X121435858Y-63460381D01*
X121531096Y-63508000D01*
X121578715Y-63555619D01*
X121626334Y-63650857D01*
X121626334Y-63746095D01*
X121578715Y-63888952D01*
X121007286Y-64460381D01*
X121626334Y-64460381D01*
X122245381Y-63460381D02*
X122340620Y-63460381D01*
X122435858Y-63508000D01*
X122483477Y-63555619D01*
X122531096Y-63650857D01*
X122578715Y-63841333D01*
X122578715Y-64079429D01*
X122531096Y-64269905D01*
X122483477Y-64365143D01*
X122435858Y-64412762D01*
X122340620Y-64460381D01*
X122245381Y-64460381D01*
X122150143Y-64412762D01*
X122102524Y-64365143D01*
X122054905Y-64269905D01*
X122007286Y-64079429D01*
X122007286Y-63841333D01*
X122054905Y-63650857D01*
X122102524Y-63555619D01*
X122150143Y-63508000D01*
X122245381Y-63460381D01*
X122912048Y-63460381D02*
X123531096Y-63460381D01*
X123197762Y-63841333D01*
X123340620Y-63841333D01*
X123435858Y-63888952D01*
X123483477Y-63936571D01*
X123531096Y-64031810D01*
X123531096Y-64269905D01*
X123483477Y-64365143D01*
X123435858Y-64412762D01*
X123340620Y-64460381D01*
X123054905Y-64460381D01*
X122959667Y-64412762D01*
X122912048Y-64365143D01*
X135659953Y-84213381D02*
X135326619Y-83737190D01*
X135088524Y-84213381D02*
X135088524Y-83213381D01*
X135469477Y-83213381D01*
X135564715Y-83261000D01*
X135612334Y-83308619D01*
X135659953Y-83403857D01*
X135659953Y-83546714D01*
X135612334Y-83641952D01*
X135564715Y-83689571D01*
X135469477Y-83737190D01*
X135088524Y-83737190D01*
X135993286Y-83213381D02*
X136612334Y-83213381D01*
X136279000Y-83594333D01*
X136421858Y-83594333D01*
X136517096Y-83641952D01*
X136564715Y-83689571D01*
X136612334Y-83784810D01*
X136612334Y-84022905D01*
X136564715Y-84118143D01*
X136517096Y-84165762D01*
X136421858Y-84213381D01*
X136136143Y-84213381D01*
X136040905Y-84165762D01*
X135993286Y-84118143D01*
X137231381Y-83213381D02*
X137326620Y-83213381D01*
X137421858Y-83261000D01*
X137469477Y-83308619D01*
X137517096Y-83403857D01*
X137564715Y-83594333D01*
X137564715Y-83832429D01*
X137517096Y-84022905D01*
X137469477Y-84118143D01*
X137421858Y-84165762D01*
X137326620Y-84213381D01*
X137231381Y-84213381D01*
X137136143Y-84165762D01*
X137088524Y-84118143D01*
X137040905Y-84022905D01*
X136993286Y-83832429D01*
X136993286Y-83594333D01*
X137040905Y-83403857D01*
X137088524Y-83308619D01*
X137136143Y-83261000D01*
X137231381Y-83213381D01*
X138517096Y-84213381D02*
X137945667Y-84213381D01*
X138231381Y-84213381D02*
X138231381Y-83213381D01*
X138136143Y-83356238D01*
X138040905Y-83451476D01*
X137945667Y-83499095D01*
X128801953Y-80335381D02*
X128468619Y-79859190D01*
X128230524Y-80335381D02*
X128230524Y-79335381D01*
X128611477Y-79335381D01*
X128706715Y-79383000D01*
X128754334Y-79430619D01*
X128801953Y-79525857D01*
X128801953Y-79668714D01*
X128754334Y-79763952D01*
X128706715Y-79811571D01*
X128611477Y-79859190D01*
X128230524Y-79859190D01*
X129135286Y-79335381D02*
X129754334Y-79335381D01*
X129421000Y-79716333D01*
X129563858Y-79716333D01*
X129659096Y-79763952D01*
X129706715Y-79811571D01*
X129754334Y-79906810D01*
X129754334Y-80144905D01*
X129706715Y-80240143D01*
X129659096Y-80287762D01*
X129563858Y-80335381D01*
X129278143Y-80335381D01*
X129182905Y-80287762D01*
X129135286Y-80240143D01*
X130373381Y-79335381D02*
X130468620Y-79335381D01*
X130563858Y-79383000D01*
X130611477Y-79430619D01*
X130659096Y-79525857D01*
X130706715Y-79716333D01*
X130706715Y-79954429D01*
X130659096Y-80144905D01*
X130611477Y-80240143D01*
X130563858Y-80287762D01*
X130468620Y-80335381D01*
X130373381Y-80335381D01*
X130278143Y-80287762D01*
X130230524Y-80240143D01*
X130182905Y-80144905D01*
X130135286Y-79954429D01*
X130135286Y-79716333D01*
X130182905Y-79525857D01*
X130230524Y-79430619D01*
X130278143Y-79383000D01*
X130373381Y-79335381D01*
X131087667Y-79430619D02*
X131135286Y-79383000D01*
X131230524Y-79335381D01*
X131468620Y-79335381D01*
X131563858Y-79383000D01*
X131611477Y-79430619D01*
X131659096Y-79525857D01*
X131659096Y-79621095D01*
X131611477Y-79763952D01*
X131040048Y-80335381D01*
X131659096Y-80335381D01*
X126114381Y-78716047D02*
X125638190Y-79049381D01*
X126114381Y-79287476D02*
X125114381Y-79287476D01*
X125114381Y-78906523D01*
X125162000Y-78811285D01*
X125209619Y-78763666D01*
X125304857Y-78716047D01*
X125447714Y-78716047D01*
X125542952Y-78763666D01*
X125590571Y-78811285D01*
X125638190Y-78906523D01*
X125638190Y-79287476D01*
X125114381Y-78382714D02*
X125114381Y-77763666D01*
X125495333Y-78097000D01*
X125495333Y-77954142D01*
X125542952Y-77858904D01*
X125590571Y-77811285D01*
X125685810Y-77763666D01*
X125923905Y-77763666D01*
X126019143Y-77811285D01*
X126066762Y-77858904D01*
X126114381Y-77954142D01*
X126114381Y-78239857D01*
X126066762Y-78335095D01*
X126019143Y-78382714D01*
X125114381Y-77144619D02*
X125114381Y-77049380D01*
X125162000Y-76954142D01*
X125209619Y-76906523D01*
X125304857Y-76858904D01*
X125495333Y-76811285D01*
X125733429Y-76811285D01*
X125923905Y-76858904D01*
X126019143Y-76906523D01*
X126066762Y-76954142D01*
X126114381Y-77049380D01*
X126114381Y-77144619D01*
X126066762Y-77239857D01*
X126019143Y-77287476D01*
X125923905Y-77335095D01*
X125733429Y-77382714D01*
X125495333Y-77382714D01*
X125304857Y-77335095D01*
X125209619Y-77287476D01*
X125162000Y-77239857D01*
X125114381Y-77144619D01*
X125114381Y-76477952D02*
X125114381Y-75858904D01*
X125495333Y-76192238D01*
X125495333Y-76049380D01*
X125542952Y-75954142D01*
X125590571Y-75906523D01*
X125685810Y-75858904D01*
X125923905Y-75858904D01*
X126019143Y-75906523D01*
X126066762Y-75954142D01*
X126114381Y-76049380D01*
X126114381Y-76335095D01*
X126066762Y-76430333D01*
X126019143Y-76477952D01*
X127960381Y-73255047D02*
X127484190Y-73588381D01*
X127960381Y-73826476D02*
X126960381Y-73826476D01*
X126960381Y-73445523D01*
X127008000Y-73350285D01*
X127055619Y-73302666D01*
X127150857Y-73255047D01*
X127293714Y-73255047D01*
X127388952Y-73302666D01*
X127436571Y-73350285D01*
X127484190Y-73445523D01*
X127484190Y-73826476D01*
X127293714Y-72397904D02*
X127960381Y-72397904D01*
X126912762Y-72636000D02*
X127627048Y-72874095D01*
X127627048Y-72255047D01*
X126960381Y-71683619D02*
X126960381Y-71588380D01*
X127008000Y-71493142D01*
X127055619Y-71445523D01*
X127150857Y-71397904D01*
X127341333Y-71350285D01*
X127579429Y-71350285D01*
X127769905Y-71397904D01*
X127865143Y-71445523D01*
X127912762Y-71493142D01*
X127960381Y-71588380D01*
X127960381Y-71683619D01*
X127912762Y-71778857D01*
X127865143Y-71826476D01*
X127769905Y-71874095D01*
X127579429Y-71921714D01*
X127341333Y-71921714D01*
X127150857Y-71874095D01*
X127055619Y-71826476D01*
X127008000Y-71778857D01*
X126960381Y-71683619D01*
X127960381Y-70397904D02*
X127960381Y-70969333D01*
X127960381Y-70683619D02*
X126960381Y-70683619D01*
X127103238Y-70778857D01*
X127198476Y-70874095D01*
X127246095Y-70969333D01*
X128976381Y-62079047D02*
X128500190Y-62412381D01*
X128976381Y-62650476D02*
X127976381Y-62650476D01*
X127976381Y-62269523D01*
X128024000Y-62174285D01*
X128071619Y-62126666D01*
X128166857Y-62079047D01*
X128309714Y-62079047D01*
X128404952Y-62126666D01*
X128452571Y-62174285D01*
X128500190Y-62269523D01*
X128500190Y-62650476D01*
X128309714Y-61221904D02*
X128976381Y-61221904D01*
X127928762Y-61460000D02*
X128643048Y-61698095D01*
X128643048Y-61079047D01*
X127976381Y-60507619D02*
X127976381Y-60412380D01*
X128024000Y-60317142D01*
X128071619Y-60269523D01*
X128166857Y-60221904D01*
X128357333Y-60174285D01*
X128595429Y-60174285D01*
X128785905Y-60221904D01*
X128881143Y-60269523D01*
X128928762Y-60317142D01*
X128976381Y-60412380D01*
X128976381Y-60507619D01*
X128928762Y-60602857D01*
X128881143Y-60650476D01*
X128785905Y-60698095D01*
X128595429Y-60745714D01*
X128357333Y-60745714D01*
X128166857Y-60698095D01*
X128071619Y-60650476D01*
X128024000Y-60602857D01*
X127976381Y-60507619D01*
X128071619Y-59793333D02*
X128024000Y-59745714D01*
X127976381Y-59650476D01*
X127976381Y-59412380D01*
X128024000Y-59317142D01*
X128071619Y-59269523D01*
X128166857Y-59221904D01*
X128262095Y-59221904D01*
X128404952Y-59269523D01*
X128976381Y-59840952D01*
X128976381Y-59221904D01*
X115267619Y-69771381D02*
X114783810Y-70110047D01*
X115267619Y-70351952D02*
X114251619Y-70351952D01*
X114251619Y-69964905D01*
X114300000Y-69868143D01*
X114348381Y-69819762D01*
X114445143Y-69771381D01*
X114590286Y-69771381D01*
X114687048Y-69819762D01*
X114735429Y-69868143D01*
X114783810Y-69964905D01*
X114783810Y-70351952D01*
X114251619Y-69481095D02*
X115267619Y-69142428D01*
X114251619Y-68803762D01*
X114348381Y-68513476D02*
X114300000Y-68465095D01*
X114251619Y-68368333D01*
X114251619Y-68126429D01*
X114300000Y-68029667D01*
X114348381Y-67981286D01*
X114445143Y-67932905D01*
X114541905Y-67932905D01*
X114687048Y-67981286D01*
X115267619Y-68561857D01*
X115267619Y-67932905D01*
X114251619Y-67303952D02*
X114251619Y-67207191D01*
X114300000Y-67110429D01*
X114348381Y-67062048D01*
X114445143Y-67013667D01*
X114638667Y-66965286D01*
X114880571Y-66965286D01*
X115074095Y-67013667D01*
X115170857Y-67062048D01*
X115219238Y-67110429D01*
X115267619Y-67207191D01*
X115267619Y-67303952D01*
X115219238Y-67400714D01*
X115170857Y-67449095D01*
X115074095Y-67497476D01*
X114880571Y-67545857D01*
X114638667Y-67545857D01*
X114445143Y-67497476D01*
X114348381Y-67449095D01*
X114300000Y-67400714D01*
X114251619Y-67303952D01*
X115267619Y-65997667D02*
X115267619Y-66578238D01*
X115267619Y-66287952D02*
X114251619Y-66287952D01*
X114396762Y-66384714D01*
X114493524Y-66481476D01*
X114541905Y-66578238D01*
X111330619Y-78691619D02*
X110991953Y-78207810D01*
X110750048Y-78691619D02*
X110750048Y-77675619D01*
X111137095Y-77675619D01*
X111233857Y-77724000D01*
X111282238Y-77772381D01*
X111330619Y-77869143D01*
X111330619Y-78014286D01*
X111282238Y-78111048D01*
X111233857Y-78159429D01*
X111137095Y-78207810D01*
X110750048Y-78207810D01*
X111620905Y-77675619D02*
X111959572Y-78691619D01*
X112298238Y-77675619D01*
X113072333Y-78014286D02*
X113072333Y-78691619D01*
X112830429Y-77627238D02*
X112588524Y-78352952D01*
X113217476Y-78352952D01*
X113798048Y-77675619D02*
X113894809Y-77675619D01*
X113991571Y-77724000D01*
X114039952Y-77772381D01*
X114088333Y-77869143D01*
X114136714Y-78062667D01*
X114136714Y-78304571D01*
X114088333Y-78498095D01*
X114039952Y-78594857D01*
X113991571Y-78643238D01*
X113894809Y-78691619D01*
X113798048Y-78691619D01*
X113701286Y-78643238D01*
X113652905Y-78594857D01*
X113604524Y-78498095D01*
X113556143Y-78304571D01*
X113556143Y-78062667D01*
X113604524Y-77869143D01*
X113652905Y-77772381D01*
X113701286Y-77724000D01*
X113798048Y-77675619D01*
X115104333Y-78691619D02*
X114523762Y-78691619D01*
X114814048Y-78691619D02*
X114814048Y-77675619D01*
X114717286Y-77820762D01*
X114620524Y-77917524D01*
X114523762Y-77965905D01*
X127825714Y-68286381D02*
X127825714Y-69095905D01*
X127873333Y-69191143D01*
X127920952Y-69238762D01*
X128016190Y-69286381D01*
X128206667Y-69286381D01*
X128301905Y-69238762D01*
X128349524Y-69191143D01*
X128397143Y-69095905D01*
X128397143Y-68286381D01*
X128825714Y-68381619D02*
X128873333Y-68334000D01*
X128968571Y-68286381D01*
X129206667Y-68286381D01*
X129301905Y-68334000D01*
X129349524Y-68381619D01*
X129397143Y-68476857D01*
X129397143Y-68572095D01*
X129349524Y-68714952D01*
X128778095Y-69286381D01*
X129397143Y-69286381D01*
X130016190Y-68286381D02*
X130111429Y-68286381D01*
X130206667Y-68334000D01*
X130254286Y-68381619D01*
X130301905Y-68476857D01*
X130349524Y-68667333D01*
X130349524Y-68905429D01*
X130301905Y-69095905D01*
X130254286Y-69191143D01*
X130206667Y-69238762D01*
X130111429Y-69286381D01*
X130016190Y-69286381D01*
X129920952Y-69238762D01*
X129873333Y-69191143D01*
X129825714Y-69095905D01*
X129778095Y-68905429D01*
X129778095Y-68667333D01*
X129825714Y-68476857D01*
X129873333Y-68381619D01*
X129920952Y-68334000D01*
X130016190Y-68286381D01*
X131301905Y-69286381D02*
X130730476Y-69286381D01*
X131016190Y-69286381D02*
X131016190Y-68286381D01*
X130920952Y-68429238D01*
X130825714Y-68524476D01*
X130730476Y-68572095D01*
X134707381Y-78422286D02*
X135516905Y-78422286D01*
X135612143Y-78374667D01*
X135659762Y-78327048D01*
X135707381Y-78231810D01*
X135707381Y-78041333D01*
X135659762Y-77946095D01*
X135612143Y-77898476D01*
X135516905Y-77850857D01*
X134707381Y-77850857D01*
X134707381Y-77469905D02*
X134707381Y-76850857D01*
X135088333Y-77184191D01*
X135088333Y-77041333D01*
X135135952Y-76946095D01*
X135183571Y-76898476D01*
X135278810Y-76850857D01*
X135516905Y-76850857D01*
X135612143Y-76898476D01*
X135659762Y-76946095D01*
X135707381Y-77041333D01*
X135707381Y-77327048D01*
X135659762Y-77422286D01*
X135612143Y-77469905D01*
X134707381Y-76231810D02*
X134707381Y-76136571D01*
X134755000Y-76041333D01*
X134802619Y-75993714D01*
X134897857Y-75946095D01*
X135088333Y-75898476D01*
X135326429Y-75898476D01*
X135516905Y-75946095D01*
X135612143Y-75993714D01*
X135659762Y-76041333D01*
X135707381Y-76136571D01*
X135707381Y-76231810D01*
X135659762Y-76327048D01*
X135612143Y-76374667D01*
X135516905Y-76422286D01*
X135326429Y-76469905D01*
X135088333Y-76469905D01*
X134897857Y-76422286D01*
X134802619Y-76374667D01*
X134755000Y-76327048D01*
X134707381Y-76231810D01*
X135707381Y-74946095D02*
X135707381Y-75517524D01*
X135707381Y-75231810D02*
X134707381Y-75231810D01*
X134850238Y-75327048D01*
X134945476Y-75422286D01*
X134993095Y-75517524D01*
X135251381Y-60047047D02*
X134775190Y-60380381D01*
X135251381Y-60618476D02*
X134251381Y-60618476D01*
X134251381Y-60237523D01*
X134299000Y-60142285D01*
X134346619Y-60094666D01*
X134441857Y-60047047D01*
X134584714Y-60047047D01*
X134679952Y-60094666D01*
X134727571Y-60142285D01*
X134775190Y-60237523D01*
X134775190Y-60618476D01*
X134584714Y-59189904D02*
X135251381Y-59189904D01*
X134203762Y-59428000D02*
X134918048Y-59666095D01*
X134918048Y-59047047D01*
X134251381Y-58475619D02*
X134251381Y-58380380D01*
X134299000Y-58285142D01*
X134346619Y-58237523D01*
X134441857Y-58189904D01*
X134632333Y-58142285D01*
X134870429Y-58142285D01*
X135060905Y-58189904D01*
X135156143Y-58237523D01*
X135203762Y-58285142D01*
X135251381Y-58380380D01*
X135251381Y-58475619D01*
X135203762Y-58570857D01*
X135156143Y-58618476D01*
X135060905Y-58666095D01*
X134870429Y-58713714D01*
X134632333Y-58713714D01*
X134441857Y-58666095D01*
X134346619Y-58618476D01*
X134299000Y-58570857D01*
X134251381Y-58475619D01*
X134251381Y-57808952D02*
X134251381Y-57189904D01*
X134632333Y-57523238D01*
X134632333Y-57380380D01*
X134679952Y-57285142D01*
X134727571Y-57237523D01*
X134822810Y-57189904D01*
X135060905Y-57189904D01*
X135156143Y-57237523D01*
X135203762Y-57285142D01*
X135251381Y-57380380D01*
X135251381Y-57666095D01*
X135203762Y-57761333D01*
X135156143Y-57808952D01*
%LPC*%
D13*
X114300000Y-48260000D03*
X139700000Y-48260000D03*
D14*
X143637000Y-64262000D03*
D15*
X143637000Y-69342000D03*
D16*
X122809000Y-76590000D03*
X122809000Y-80890000D03*
D17*
X125349000Y-59856000D03*
X125349000Y-57746000D03*
D14*
X143637000Y-75438000D03*
D15*
X143637000Y-80518000D03*
D18*
X137287000Y-69342000D03*
D19*
X137287000Y-66802000D03*
X137287000Y-64262000D03*
D20*
X127000000Y-52070000D03*
X124460000Y-52070000D03*
X129540000Y-52070000D03*
D21*
X123378000Y-69088000D03*
X121478000Y-69088000D03*
D22*
X121285000Y-57724000D03*
X121285000Y-59624000D03*
D21*
X123251000Y-65786000D03*
X121351000Y-65786000D03*
X137729000Y-81661000D03*
X135829000Y-81661000D03*
X130241000Y-81534000D03*
X132141000Y-81534000D03*
D22*
X127762000Y-78547000D03*
X127762000Y-76647000D03*
X125603000Y-73213000D03*
X125603000Y-71313000D03*
X128016000Y-56200000D03*
X128016000Y-58100000D03*
D23*
X110490000Y-70826000D03*
X110490000Y-68326000D03*
X110490000Y-65826000D03*
D24*
X113790000Y-73426000D03*
X113790000Y-63226000D03*
D23*
X115149000Y-82296000D03*
X112649000Y-82296000D03*
X110149000Y-82296000D03*
D24*
X117749000Y-78996000D03*
X107549000Y-78996000D03*
D25*
X132715000Y-65278000D03*
X132715000Y-66548000D03*
X132715000Y-67818000D03*
X132715000Y-69088000D03*
X126365000Y-69088000D03*
X126365000Y-67818000D03*
X126365000Y-66548000D03*
X126365000Y-65278000D03*
X137160000Y-74803000D03*
X137160000Y-76073000D03*
X137160000Y-77343000D03*
X137160000Y-78613000D03*
X130810000Y-78613000D03*
X130810000Y-77343000D03*
X130810000Y-76073000D03*
X130810000Y-74803000D03*
D26*
X150749000Y-32893000D03*
X103251000Y-32893000D03*
X150749000Y-87249000D03*
X103251000Y-87249000D03*
D27*
X151003000Y-60579000D03*
X103378000Y-79502000D03*
X123952000Y-62230000D03*
X118999000Y-62357000D03*
X133858000Y-72644000D03*
X128778000Y-85344000D03*
X123190000Y-85471000D03*
X125476000Y-55499000D03*
X126619000Y-62103000D03*
D28*
X131699000Y-55828000D03*
X131699000Y-62028000D03*
D27*
X143637000Y-87503000D03*
M02*
