M48
;DRILL file {KiCad 4.0.2-stable} date Saturday, September 03, 2016 'PMt' 12:33:51 PM
;FORMAT={-:-/ absolute / inch / decimal}
FMAT,2
INCH,TZ
T1C0.030
T2C0.039
T3C0.039
T4C0.040
T5C0.051
T6C0.087
T7C0.091
T8C0.126
%
G90
G05
M72
T1
X4.695Y-2.59
X4.875Y-2.88
X4.915Y-2.75
X5.08Y-2.45
X5.08Y-2.67
X5.095Y-2.76
X5.28Y-2.995
X5.29Y-2.51
X5.29Y-3.215
X5.455Y-2.86
T2
X4.3366Y-3.24
X4.35Y-2.5916
X4.35Y-2.69
X4.35Y-2.7884
X4.435Y-3.24
X4.5334Y-3.24
T3
X4.9Y-2.05
X5.Y-2.05
X5.1Y-2.05
T4
X5.405Y-2.53
X5.405Y-2.63
X5.405Y-2.73
T5
X5.655Y-2.53
X5.655Y-2.73
X5.655Y-2.97
X5.655Y-3.17
T6
X4.2342Y-3.1101
X4.4799Y-2.4892
X4.4799Y-2.8908
X4.6358Y-3.1101
T7
X4.5Y-1.9
X5.5Y-1.9
T8
X4.065Y-1.295
X4.065Y-3.435
X5.935Y-1.295
X5.935Y-3.435
T0
M30
