G04 #@! TF.FileFunction,Copper,L2,Bot,Signal*
%FSLAX46Y46*%
G04 Gerber Fmt 4.6, Leading zero omitted, Abs format (unit mm)*
G04 Created by KiCad (PCBNEW 4.0.2-stable) date Saturday, September 03, 2016 'PMt' 12:33:19 PM*
%MOMM*%
G01*
G04 APERTURE LIST*
%ADD10C,0.100000*%
%ADD11R,2.540000X2.540000*%
%ADD12O,2.540000X2.540000*%
%ADD13R,1.000000X1.250000*%
%ADD14R,1.250000X1.000000*%
%ADD15R,2.032000X1.727200*%
%ADD16O,2.032000X1.727200*%
%ADD17O,1.501140X2.499360*%
%ADD18C,2.000000*%
%ADD19C,1.143000*%
%ADD20C,0.609600*%
%ADD21C,0.254000*%
G04 APERTURE END LIST*
D10*
D11*
X143637000Y-64262000D03*
D12*
X143637000Y-69342000D03*
D13*
X123047000Y-71628000D03*
X121047000Y-71628000D03*
D14*
X139827000Y-75200000D03*
X139827000Y-77200000D03*
D11*
X143637000Y-75438000D03*
D12*
X143637000Y-80518000D03*
D15*
X137287000Y-69342000D03*
D16*
X137287000Y-66802000D03*
X137287000Y-64262000D03*
D17*
X127000000Y-52070000D03*
X124460000Y-52070000D03*
X129540000Y-52070000D03*
D18*
X110490000Y-70826000D03*
X110490000Y-68326000D03*
X110490000Y-65826000D03*
X115149000Y-82296000D03*
X112649000Y-82296000D03*
X110149000Y-82296000D03*
D19*
X124841000Y-69850000D03*
X123825000Y-73152000D03*
X134366000Y-63754000D03*
X134366000Y-81661000D03*
X129413000Y-70104000D03*
X119253000Y-65786000D03*
X134112000Y-76073000D03*
X138557000Y-72644000D03*
X129032000Y-67818000D03*
X129032000Y-62230000D03*
D20*
X123047000Y-71628000D02*
X123063000Y-71628000D01*
X123063000Y-71628000D02*
X124841000Y-69850000D01*
X123047000Y-72374000D02*
X123047000Y-71628000D01*
X123825000Y-73152000D02*
X123047000Y-72374000D01*
X134112000Y-76073000D02*
X134112000Y-76200000D01*
X139827000Y-73914000D02*
X139827000Y-75200000D01*
X138557000Y-72644000D02*
X139827000Y-73914000D01*
X129032000Y-62230000D02*
X129032000Y-67818000D01*
D21*
G36*
X154890000Y-91390000D02*
X99110000Y-91390000D01*
X99110000Y-87691619D01*
X101015613Y-87691619D01*
X101355155Y-88513372D01*
X101983321Y-89142636D01*
X102804481Y-89483611D01*
X103693619Y-89484387D01*
X104515372Y-89144845D01*
X105144636Y-88516679D01*
X105485611Y-87695519D01*
X105485614Y-87691619D01*
X148513613Y-87691619D01*
X148853155Y-88513372D01*
X149481321Y-89142636D01*
X150302481Y-89483611D01*
X151191619Y-89484387D01*
X152013372Y-89144845D01*
X152642636Y-88516679D01*
X152983611Y-87695519D01*
X152984387Y-86806381D01*
X152644845Y-85984628D01*
X152016679Y-85355364D01*
X151195519Y-85014389D01*
X150306381Y-85013613D01*
X149484628Y-85353155D01*
X148855364Y-85981321D01*
X148514389Y-86802481D01*
X148513613Y-87691619D01*
X105485614Y-87691619D01*
X105486387Y-86806381D01*
X105146845Y-85984628D01*
X104518679Y-85355364D01*
X103697519Y-85014389D01*
X102808381Y-85013613D01*
X101986628Y-85353155D01*
X101357364Y-85981321D01*
X101016389Y-86802481D01*
X101015613Y-87691619D01*
X99110000Y-87691619D01*
X99110000Y-82619795D01*
X108513716Y-82619795D01*
X108762106Y-83220943D01*
X109221637Y-83681278D01*
X109822352Y-83930716D01*
X110472795Y-83931284D01*
X111073943Y-83682894D01*
X111308715Y-83448532D01*
X111676073Y-83448532D01*
X111774736Y-83715387D01*
X112384461Y-83941908D01*
X113034460Y-83917856D01*
X113523264Y-83715387D01*
X113621927Y-83448532D01*
X112649000Y-82475605D01*
X111676073Y-83448532D01*
X111308715Y-83448532D01*
X111490752Y-83266813D01*
X111496468Y-83268927D01*
X112469395Y-82296000D01*
X112828605Y-82296000D01*
X113801532Y-83268927D01*
X113807722Y-83266639D01*
X114221637Y-83681278D01*
X114822352Y-83930716D01*
X115472795Y-83931284D01*
X116073943Y-83682894D01*
X116534278Y-83223363D01*
X116783716Y-82622648D01*
X116784284Y-81972205D01*
X116535894Y-81371057D01*
X116106371Y-80940782D01*
X141779500Y-80940782D01*
X142082685Y-81619434D01*
X142622501Y-82130403D01*
X143214219Y-82375493D01*
X143510000Y-82259626D01*
X143510000Y-80645000D01*
X143764000Y-80645000D01*
X143764000Y-82259626D01*
X144059781Y-82375493D01*
X144651499Y-82130403D01*
X145191315Y-81619434D01*
X145494500Y-80940782D01*
X145379019Y-80645000D01*
X143764000Y-80645000D01*
X143510000Y-80645000D01*
X141894981Y-80645000D01*
X141779500Y-80940782D01*
X116106371Y-80940782D01*
X116076363Y-80910722D01*
X115475648Y-80661284D01*
X114825205Y-80660716D01*
X114224057Y-80909106D01*
X113807248Y-81325187D01*
X113801532Y-81323073D01*
X112828605Y-82296000D01*
X112469395Y-82296000D01*
X111496468Y-81323073D01*
X111490278Y-81325361D01*
X111308703Y-81143468D01*
X111676073Y-81143468D01*
X112649000Y-82116395D01*
X113621927Y-81143468D01*
X113523264Y-80876613D01*
X112913539Y-80650092D01*
X112263540Y-80674144D01*
X111774736Y-80876613D01*
X111676073Y-81143468D01*
X111308703Y-81143468D01*
X111076363Y-80910722D01*
X110475648Y-80661284D01*
X109825205Y-80660716D01*
X109224057Y-80909106D01*
X108763722Y-81368637D01*
X108514284Y-81969352D01*
X108513716Y-82619795D01*
X99110000Y-82619795D01*
X99110000Y-79339599D01*
X105813699Y-79339599D01*
X106077281Y-79977515D01*
X106564918Y-80466004D01*
X107202373Y-80730699D01*
X107892599Y-80731301D01*
X108530515Y-80467719D01*
X109019004Y-79980082D01*
X109283699Y-79342627D01*
X109283701Y-79339599D01*
X116013699Y-79339599D01*
X116277281Y-79977515D01*
X116764918Y-80466004D01*
X117402373Y-80730699D01*
X118092599Y-80731301D01*
X118730515Y-80467719D01*
X119103666Y-80095218D01*
X141779500Y-80095218D01*
X141894981Y-80391000D01*
X143510000Y-80391000D01*
X143510000Y-78776374D01*
X143764000Y-78776374D01*
X143764000Y-80391000D01*
X145379019Y-80391000D01*
X145494500Y-80095218D01*
X145191315Y-79416566D01*
X144651499Y-78905597D01*
X144059781Y-78660507D01*
X143764000Y-78776374D01*
X143510000Y-78776374D01*
X143214219Y-78660507D01*
X142622501Y-78905597D01*
X142082685Y-79416566D01*
X141779500Y-80095218D01*
X119103666Y-80095218D01*
X119219004Y-79980082D01*
X119483699Y-79342627D01*
X119484301Y-78652401D01*
X119220719Y-78014485D01*
X118733082Y-77525996D01*
X118636160Y-77485750D01*
X138567000Y-77485750D01*
X138567000Y-77826309D01*
X138663673Y-78059698D01*
X138842301Y-78238327D01*
X139075690Y-78335000D01*
X139541250Y-78335000D01*
X139700000Y-78176250D01*
X139700000Y-77327000D01*
X139954000Y-77327000D01*
X139954000Y-78176250D01*
X140112750Y-78335000D01*
X140578310Y-78335000D01*
X140811699Y-78238327D01*
X140990327Y-78059698D01*
X141087000Y-77826309D01*
X141087000Y-77485750D01*
X140928250Y-77327000D01*
X139954000Y-77327000D01*
X139700000Y-77327000D01*
X138725750Y-77327000D01*
X138567000Y-77485750D01*
X118636160Y-77485750D01*
X118095627Y-77261301D01*
X117405401Y-77260699D01*
X116767485Y-77524281D01*
X116278996Y-78011918D01*
X116014301Y-78649373D01*
X116013699Y-79339599D01*
X109283701Y-79339599D01*
X109284301Y-78652401D01*
X109020719Y-78014485D01*
X108533082Y-77525996D01*
X107895627Y-77261301D01*
X107205401Y-77260699D01*
X106567485Y-77524281D01*
X106078996Y-78011918D01*
X105814301Y-78649373D01*
X105813699Y-79339599D01*
X99110000Y-79339599D01*
X99110000Y-73769599D01*
X112054699Y-73769599D01*
X112318281Y-74407515D01*
X112805918Y-74896004D01*
X113443373Y-75160699D01*
X114133599Y-75161301D01*
X114771515Y-74897719D01*
X115260004Y-74410082D01*
X115524699Y-73772627D01*
X115525301Y-73082401D01*
X115261719Y-72444485D01*
X114774082Y-71955996D01*
X114672343Y-71913750D01*
X119912000Y-71913750D01*
X119912000Y-72379310D01*
X120008673Y-72612699D01*
X120187302Y-72791327D01*
X120420691Y-72888000D01*
X120761250Y-72888000D01*
X120920000Y-72729250D01*
X120920000Y-71755000D01*
X120070750Y-71755000D01*
X119912000Y-71913750D01*
X114672343Y-71913750D01*
X114136627Y-71691301D01*
X113446401Y-71690699D01*
X112808485Y-71954281D01*
X112319996Y-72441918D01*
X112055301Y-73079373D01*
X112054699Y-73769599D01*
X99110000Y-73769599D01*
X99110000Y-68649795D01*
X108854716Y-68649795D01*
X109103106Y-69250943D01*
X109427759Y-69576164D01*
X109104722Y-69898637D01*
X108855284Y-70499352D01*
X108854716Y-71149795D01*
X109103106Y-71750943D01*
X109562637Y-72211278D01*
X110163352Y-72460716D01*
X110813795Y-72461284D01*
X111414943Y-72212894D01*
X111875278Y-71753363D01*
X112124716Y-71152648D01*
X112124956Y-70876690D01*
X119912000Y-70876690D01*
X119912000Y-71342250D01*
X120070750Y-71501000D01*
X120920000Y-71501000D01*
X120920000Y-70526750D01*
X121174000Y-70526750D01*
X121174000Y-71501000D01*
X121194000Y-71501000D01*
X121194000Y-71755000D01*
X121174000Y-71755000D01*
X121174000Y-72729250D01*
X121332750Y-72888000D01*
X121673309Y-72888000D01*
X121906698Y-72791327D01*
X122047936Y-72650090D01*
X122082910Y-72704441D01*
X122223334Y-72800389D01*
X122382461Y-73038539D01*
X122618393Y-73274471D01*
X122618291Y-73390935D01*
X122801582Y-73834535D01*
X123140680Y-74174225D01*
X123583959Y-74358290D01*
X124063935Y-74358709D01*
X124507535Y-74175418D01*
X124847225Y-73836320D01*
X125031290Y-73393041D01*
X125031709Y-72913065D01*
X125019260Y-72882935D01*
X137350291Y-72882935D01*
X137533582Y-73326535D01*
X137872680Y-73666225D01*
X138315959Y-73850290D01*
X138434315Y-73850393D01*
X138792709Y-74208787D01*
X138750559Y-74235910D01*
X138605569Y-74448110D01*
X138554560Y-74700000D01*
X138554560Y-75700000D01*
X138598838Y-75935317D01*
X138737910Y-76151441D01*
X138806006Y-76197969D01*
X138663673Y-76340302D01*
X138567000Y-76573691D01*
X138567000Y-76914250D01*
X138725750Y-77073000D01*
X139700000Y-77073000D01*
X139700000Y-77053000D01*
X139954000Y-77053000D01*
X139954000Y-77073000D01*
X140928250Y-77073000D01*
X141087000Y-76914250D01*
X141087000Y-76573691D01*
X140990327Y-76340302D01*
X140849090Y-76199064D01*
X140903441Y-76164090D01*
X141048431Y-75951890D01*
X141099440Y-75700000D01*
X141099440Y-74700000D01*
X141055162Y-74464683D01*
X140916090Y-74248559D01*
X140798188Y-74168000D01*
X141719560Y-74168000D01*
X141719560Y-76708000D01*
X141763838Y-76943317D01*
X141902910Y-77159441D01*
X142115110Y-77304431D01*
X142367000Y-77355440D01*
X144907000Y-77355440D01*
X145142317Y-77311162D01*
X145358441Y-77172090D01*
X145503431Y-76959890D01*
X145554440Y-76708000D01*
X145554440Y-74168000D01*
X145510162Y-73932683D01*
X145371090Y-73716559D01*
X145158890Y-73571569D01*
X144907000Y-73520560D01*
X142367000Y-73520560D01*
X142131683Y-73564838D01*
X141915559Y-73703910D01*
X141770569Y-73916110D01*
X141719560Y-74168000D01*
X140798188Y-74168000D01*
X140766800Y-74146554D01*
X140766800Y-73914000D01*
X140695262Y-73554354D01*
X140491539Y-73249461D01*
X139763607Y-72521529D01*
X139763709Y-72405065D01*
X139580418Y-71961465D01*
X139241320Y-71621775D01*
X138798041Y-71437710D01*
X138318065Y-71437291D01*
X137874465Y-71620582D01*
X137534775Y-71959680D01*
X137350710Y-72402959D01*
X137350291Y-72882935D01*
X125019260Y-72882935D01*
X124848418Y-72469465D01*
X124509320Y-72129775D01*
X124194440Y-71999026D01*
X124194440Y-71825638D01*
X124963471Y-71056607D01*
X125079935Y-71056709D01*
X125523535Y-70873418D01*
X125863225Y-70534320D01*
X126047290Y-70091041D01*
X126047709Y-69611065D01*
X125864418Y-69167465D01*
X125525320Y-68827775D01*
X125082041Y-68643710D01*
X124602065Y-68643291D01*
X124158465Y-68826582D01*
X123818775Y-69165680D01*
X123634710Y-69608959D01*
X123634607Y-69727315D01*
X123006362Y-70355560D01*
X122547000Y-70355560D01*
X122311683Y-70399838D01*
X122095559Y-70538910D01*
X122049031Y-70607006D01*
X121906698Y-70464673D01*
X121673309Y-70368000D01*
X121332750Y-70368000D01*
X121174000Y-70526750D01*
X120920000Y-70526750D01*
X120761250Y-70368000D01*
X120420691Y-70368000D01*
X120187302Y-70464673D01*
X120008673Y-70643301D01*
X119912000Y-70876690D01*
X112124956Y-70876690D01*
X112125284Y-70502205D01*
X111876894Y-69901057D01*
X111552241Y-69575836D01*
X111875278Y-69253363D01*
X112124716Y-68652648D01*
X112125284Y-68002205D01*
X111876894Y-67401057D01*
X111460813Y-66984248D01*
X111462927Y-66978532D01*
X110490000Y-66005605D01*
X109517073Y-66978532D01*
X109519361Y-66984722D01*
X109104722Y-67398637D01*
X108855284Y-67999352D01*
X108854716Y-68649795D01*
X99110000Y-68649795D01*
X99110000Y-65561461D01*
X108844092Y-65561461D01*
X108868144Y-66211460D01*
X109070613Y-66700264D01*
X109337468Y-66798927D01*
X110310395Y-65826000D01*
X110669605Y-65826000D01*
X111642532Y-66798927D01*
X111909387Y-66700264D01*
X112135908Y-66090539D01*
X112111856Y-65440540D01*
X111909387Y-64951736D01*
X111642532Y-64853073D01*
X110669605Y-65826000D01*
X110310395Y-65826000D01*
X109337468Y-64853073D01*
X109070613Y-64951736D01*
X108844092Y-65561461D01*
X99110000Y-65561461D01*
X99110000Y-64673468D01*
X109517073Y-64673468D01*
X110490000Y-65646395D01*
X111462927Y-64673468D01*
X111364264Y-64406613D01*
X110754539Y-64180092D01*
X110104540Y-64204144D01*
X109615736Y-64406613D01*
X109517073Y-64673468D01*
X99110000Y-64673468D01*
X99110000Y-63569599D01*
X112054699Y-63569599D01*
X112318281Y-64207515D01*
X112805918Y-64696004D01*
X113443373Y-64960699D01*
X114133599Y-64961301D01*
X114771515Y-64697719D01*
X115260004Y-64210082D01*
X115524699Y-63572627D01*
X115525301Y-62882401D01*
X115354461Y-62468935D01*
X127825291Y-62468935D01*
X128008582Y-62912535D01*
X128092200Y-62996299D01*
X128092200Y-67051399D01*
X128009775Y-67133680D01*
X127825710Y-67576959D01*
X127825291Y-68056935D01*
X128008582Y-68500535D01*
X128347680Y-68840225D01*
X128790959Y-69024290D01*
X129270935Y-69024709D01*
X129714535Y-68841418D01*
X130054225Y-68502320D01*
X130238290Y-68059041D01*
X130238709Y-67579065D01*
X130055418Y-67135465D01*
X129971800Y-67051701D01*
X129971800Y-64262000D01*
X135603655Y-64262000D01*
X135717729Y-64835489D01*
X136042585Y-65321670D01*
X136357366Y-65532000D01*
X136042585Y-65742330D01*
X135717729Y-66228511D01*
X135603655Y-66802000D01*
X135717729Y-67375489D01*
X136042585Y-67861670D01*
X136056913Y-67871243D01*
X136035683Y-67875238D01*
X135819559Y-68014310D01*
X135674569Y-68226510D01*
X135623560Y-68478400D01*
X135623560Y-70205600D01*
X135667838Y-70440917D01*
X135806910Y-70657041D01*
X136019110Y-70802031D01*
X136271000Y-70853040D01*
X138303000Y-70853040D01*
X138538317Y-70808762D01*
X138754441Y-70669690D01*
X138899431Y-70457490D01*
X138950440Y-70205600D01*
X138950440Y-69764782D01*
X141779500Y-69764782D01*
X142082685Y-70443434D01*
X142622501Y-70954403D01*
X143214219Y-71199493D01*
X143510000Y-71083626D01*
X143510000Y-69469000D01*
X143764000Y-69469000D01*
X143764000Y-71083626D01*
X144059781Y-71199493D01*
X144651499Y-70954403D01*
X145191315Y-70443434D01*
X145494500Y-69764782D01*
X145379019Y-69469000D01*
X143764000Y-69469000D01*
X143510000Y-69469000D01*
X141894981Y-69469000D01*
X141779500Y-69764782D01*
X138950440Y-69764782D01*
X138950440Y-68919218D01*
X141779500Y-68919218D01*
X141894981Y-69215000D01*
X143510000Y-69215000D01*
X143510000Y-67600374D01*
X143764000Y-67600374D01*
X143764000Y-69215000D01*
X145379019Y-69215000D01*
X145494500Y-68919218D01*
X145191315Y-68240566D01*
X144651499Y-67729597D01*
X144059781Y-67484507D01*
X143764000Y-67600374D01*
X143510000Y-67600374D01*
X143214219Y-67484507D01*
X142622501Y-67729597D01*
X142082685Y-68240566D01*
X141779500Y-68919218D01*
X138950440Y-68919218D01*
X138950440Y-68478400D01*
X138906162Y-68243083D01*
X138767090Y-68026959D01*
X138554890Y-67881969D01*
X138513561Y-67873600D01*
X138531415Y-67861670D01*
X138856271Y-67375489D01*
X138970345Y-66802000D01*
X138856271Y-66228511D01*
X138531415Y-65742330D01*
X138216634Y-65532000D01*
X138531415Y-65321670D01*
X138856271Y-64835489D01*
X138970345Y-64262000D01*
X138856271Y-63688511D01*
X138531415Y-63202330D01*
X138216635Y-62992000D01*
X141719560Y-62992000D01*
X141719560Y-65532000D01*
X141763838Y-65767317D01*
X141902910Y-65983441D01*
X142115110Y-66128431D01*
X142367000Y-66179440D01*
X144907000Y-66179440D01*
X145142317Y-66135162D01*
X145358441Y-65996090D01*
X145503431Y-65783890D01*
X145554440Y-65532000D01*
X145554440Y-62992000D01*
X145510162Y-62756683D01*
X145371090Y-62540559D01*
X145158890Y-62395569D01*
X144907000Y-62344560D01*
X142367000Y-62344560D01*
X142131683Y-62388838D01*
X141915559Y-62527910D01*
X141770569Y-62740110D01*
X141719560Y-62992000D01*
X138216635Y-62992000D01*
X138045234Y-62877474D01*
X137471745Y-62763400D01*
X137102255Y-62763400D01*
X136528766Y-62877474D01*
X136042585Y-63202330D01*
X135717729Y-63688511D01*
X135603655Y-64262000D01*
X129971800Y-64262000D01*
X129971800Y-62996601D01*
X130054225Y-62914320D01*
X130238290Y-62471041D01*
X130238709Y-61991065D01*
X130055418Y-61547465D01*
X129716320Y-61207775D01*
X129273041Y-61023710D01*
X128793065Y-61023291D01*
X128349465Y-61206582D01*
X128009775Y-61545680D01*
X127825710Y-61988959D01*
X127825291Y-62468935D01*
X115354461Y-62468935D01*
X115261719Y-62244485D01*
X114774082Y-61755996D01*
X114136627Y-61491301D01*
X113446401Y-61490699D01*
X112808485Y-61754281D01*
X112319996Y-62241918D01*
X112055301Y-62879373D01*
X112054699Y-63569599D01*
X99110000Y-63569599D01*
X99110000Y-51533967D01*
X123074430Y-51533967D01*
X123074430Y-52606033D01*
X123179900Y-53136268D01*
X123480254Y-53585779D01*
X123929765Y-53886133D01*
X124460000Y-53991603D01*
X124990235Y-53886133D01*
X125439746Y-53585779D01*
X125730000Y-53151384D01*
X126020254Y-53585779D01*
X126469765Y-53886133D01*
X127000000Y-53991603D01*
X127530235Y-53886133D01*
X127979746Y-53585779D01*
X128270000Y-53151384D01*
X128560254Y-53585779D01*
X129009765Y-53886133D01*
X129540000Y-53991603D01*
X130070235Y-53886133D01*
X130519746Y-53585779D01*
X130820100Y-53136268D01*
X130925570Y-52606033D01*
X130925570Y-51533967D01*
X130820100Y-51003732D01*
X130519746Y-50554221D01*
X130070235Y-50253867D01*
X129540000Y-50148397D01*
X129009765Y-50253867D01*
X128560254Y-50554221D01*
X128270000Y-50988616D01*
X127979746Y-50554221D01*
X127530235Y-50253867D01*
X127000000Y-50148397D01*
X126469765Y-50253867D01*
X126020254Y-50554221D01*
X125730000Y-50988616D01*
X125439746Y-50554221D01*
X124990235Y-50253867D01*
X124460000Y-50148397D01*
X123929765Y-50253867D01*
X123480254Y-50554221D01*
X123179900Y-51003732D01*
X123074430Y-51533967D01*
X99110000Y-51533967D01*
X99110000Y-48614630D01*
X112508990Y-48614630D01*
X112781033Y-49273025D01*
X113284325Y-49777196D01*
X113942245Y-50050389D01*
X114654630Y-50051010D01*
X115313025Y-49778967D01*
X115817196Y-49275675D01*
X116090389Y-48617755D01*
X116090391Y-48614630D01*
X137908990Y-48614630D01*
X138181033Y-49273025D01*
X138684325Y-49777196D01*
X139342245Y-50050389D01*
X140054630Y-50051010D01*
X140713025Y-49778967D01*
X141217196Y-49275675D01*
X141490389Y-48617755D01*
X141491010Y-47905370D01*
X141218967Y-47246975D01*
X140715675Y-46742804D01*
X140057755Y-46469611D01*
X139345370Y-46468990D01*
X138686975Y-46741033D01*
X138182804Y-47244325D01*
X137909611Y-47902245D01*
X137908990Y-48614630D01*
X116090391Y-48614630D01*
X116091010Y-47905370D01*
X115818967Y-47246975D01*
X115315675Y-46742804D01*
X114657755Y-46469611D01*
X113945370Y-46468990D01*
X113286975Y-46741033D01*
X112782804Y-47244325D01*
X112509611Y-47902245D01*
X112508990Y-48614630D01*
X99110000Y-48614630D01*
X99110000Y-33335619D01*
X101015613Y-33335619D01*
X101355155Y-34157372D01*
X101983321Y-34786636D01*
X102804481Y-35127611D01*
X103693619Y-35128387D01*
X104515372Y-34788845D01*
X105144636Y-34160679D01*
X105485611Y-33339519D01*
X105485614Y-33335619D01*
X148513613Y-33335619D01*
X148853155Y-34157372D01*
X149481321Y-34786636D01*
X150302481Y-35127611D01*
X151191619Y-35128387D01*
X152013372Y-34788845D01*
X152642636Y-34160679D01*
X152983611Y-33339519D01*
X152984387Y-32450381D01*
X152644845Y-31628628D01*
X152016679Y-30999364D01*
X151195519Y-30658389D01*
X150306381Y-30657613D01*
X149484628Y-30997155D01*
X148855364Y-31625321D01*
X148514389Y-32446481D01*
X148513613Y-33335619D01*
X105485614Y-33335619D01*
X105486387Y-32450381D01*
X105146845Y-31628628D01*
X104518679Y-30999364D01*
X103697519Y-30658389D01*
X102808381Y-30657613D01*
X101986628Y-30997155D01*
X101357364Y-31625321D01*
X101016389Y-32446481D01*
X101015613Y-33335619D01*
X99110000Y-33335619D01*
X99110000Y-28752000D01*
X154890000Y-28752000D01*
X154890000Y-91390000D01*
X154890000Y-91390000D01*
G37*
X154890000Y-91390000D02*
X99110000Y-91390000D01*
X99110000Y-87691619D01*
X101015613Y-87691619D01*
X101355155Y-88513372D01*
X101983321Y-89142636D01*
X102804481Y-89483611D01*
X103693619Y-89484387D01*
X104515372Y-89144845D01*
X105144636Y-88516679D01*
X105485611Y-87695519D01*
X105485614Y-87691619D01*
X148513613Y-87691619D01*
X148853155Y-88513372D01*
X149481321Y-89142636D01*
X150302481Y-89483611D01*
X151191619Y-89484387D01*
X152013372Y-89144845D01*
X152642636Y-88516679D01*
X152983611Y-87695519D01*
X152984387Y-86806381D01*
X152644845Y-85984628D01*
X152016679Y-85355364D01*
X151195519Y-85014389D01*
X150306381Y-85013613D01*
X149484628Y-85353155D01*
X148855364Y-85981321D01*
X148514389Y-86802481D01*
X148513613Y-87691619D01*
X105485614Y-87691619D01*
X105486387Y-86806381D01*
X105146845Y-85984628D01*
X104518679Y-85355364D01*
X103697519Y-85014389D01*
X102808381Y-85013613D01*
X101986628Y-85353155D01*
X101357364Y-85981321D01*
X101016389Y-86802481D01*
X101015613Y-87691619D01*
X99110000Y-87691619D01*
X99110000Y-82619795D01*
X108513716Y-82619795D01*
X108762106Y-83220943D01*
X109221637Y-83681278D01*
X109822352Y-83930716D01*
X110472795Y-83931284D01*
X111073943Y-83682894D01*
X111308715Y-83448532D01*
X111676073Y-83448532D01*
X111774736Y-83715387D01*
X112384461Y-83941908D01*
X113034460Y-83917856D01*
X113523264Y-83715387D01*
X113621927Y-83448532D01*
X112649000Y-82475605D01*
X111676073Y-83448532D01*
X111308715Y-83448532D01*
X111490752Y-83266813D01*
X111496468Y-83268927D01*
X112469395Y-82296000D01*
X112828605Y-82296000D01*
X113801532Y-83268927D01*
X113807722Y-83266639D01*
X114221637Y-83681278D01*
X114822352Y-83930716D01*
X115472795Y-83931284D01*
X116073943Y-83682894D01*
X116534278Y-83223363D01*
X116783716Y-82622648D01*
X116784284Y-81972205D01*
X116535894Y-81371057D01*
X116106371Y-80940782D01*
X141779500Y-80940782D01*
X142082685Y-81619434D01*
X142622501Y-82130403D01*
X143214219Y-82375493D01*
X143510000Y-82259626D01*
X143510000Y-80645000D01*
X143764000Y-80645000D01*
X143764000Y-82259626D01*
X144059781Y-82375493D01*
X144651499Y-82130403D01*
X145191315Y-81619434D01*
X145494500Y-80940782D01*
X145379019Y-80645000D01*
X143764000Y-80645000D01*
X143510000Y-80645000D01*
X141894981Y-80645000D01*
X141779500Y-80940782D01*
X116106371Y-80940782D01*
X116076363Y-80910722D01*
X115475648Y-80661284D01*
X114825205Y-80660716D01*
X114224057Y-80909106D01*
X113807248Y-81325187D01*
X113801532Y-81323073D01*
X112828605Y-82296000D01*
X112469395Y-82296000D01*
X111496468Y-81323073D01*
X111490278Y-81325361D01*
X111308703Y-81143468D01*
X111676073Y-81143468D01*
X112649000Y-82116395D01*
X113621927Y-81143468D01*
X113523264Y-80876613D01*
X112913539Y-80650092D01*
X112263540Y-80674144D01*
X111774736Y-80876613D01*
X111676073Y-81143468D01*
X111308703Y-81143468D01*
X111076363Y-80910722D01*
X110475648Y-80661284D01*
X109825205Y-80660716D01*
X109224057Y-80909106D01*
X108763722Y-81368637D01*
X108514284Y-81969352D01*
X108513716Y-82619795D01*
X99110000Y-82619795D01*
X99110000Y-79339599D01*
X105813699Y-79339599D01*
X106077281Y-79977515D01*
X106564918Y-80466004D01*
X107202373Y-80730699D01*
X107892599Y-80731301D01*
X108530515Y-80467719D01*
X109019004Y-79980082D01*
X109283699Y-79342627D01*
X109283701Y-79339599D01*
X116013699Y-79339599D01*
X116277281Y-79977515D01*
X116764918Y-80466004D01*
X117402373Y-80730699D01*
X118092599Y-80731301D01*
X118730515Y-80467719D01*
X119103666Y-80095218D01*
X141779500Y-80095218D01*
X141894981Y-80391000D01*
X143510000Y-80391000D01*
X143510000Y-78776374D01*
X143764000Y-78776374D01*
X143764000Y-80391000D01*
X145379019Y-80391000D01*
X145494500Y-80095218D01*
X145191315Y-79416566D01*
X144651499Y-78905597D01*
X144059781Y-78660507D01*
X143764000Y-78776374D01*
X143510000Y-78776374D01*
X143214219Y-78660507D01*
X142622501Y-78905597D01*
X142082685Y-79416566D01*
X141779500Y-80095218D01*
X119103666Y-80095218D01*
X119219004Y-79980082D01*
X119483699Y-79342627D01*
X119484301Y-78652401D01*
X119220719Y-78014485D01*
X118733082Y-77525996D01*
X118636160Y-77485750D01*
X138567000Y-77485750D01*
X138567000Y-77826309D01*
X138663673Y-78059698D01*
X138842301Y-78238327D01*
X139075690Y-78335000D01*
X139541250Y-78335000D01*
X139700000Y-78176250D01*
X139700000Y-77327000D01*
X139954000Y-77327000D01*
X139954000Y-78176250D01*
X140112750Y-78335000D01*
X140578310Y-78335000D01*
X140811699Y-78238327D01*
X140990327Y-78059698D01*
X141087000Y-77826309D01*
X141087000Y-77485750D01*
X140928250Y-77327000D01*
X139954000Y-77327000D01*
X139700000Y-77327000D01*
X138725750Y-77327000D01*
X138567000Y-77485750D01*
X118636160Y-77485750D01*
X118095627Y-77261301D01*
X117405401Y-77260699D01*
X116767485Y-77524281D01*
X116278996Y-78011918D01*
X116014301Y-78649373D01*
X116013699Y-79339599D01*
X109283701Y-79339599D01*
X109284301Y-78652401D01*
X109020719Y-78014485D01*
X108533082Y-77525996D01*
X107895627Y-77261301D01*
X107205401Y-77260699D01*
X106567485Y-77524281D01*
X106078996Y-78011918D01*
X105814301Y-78649373D01*
X105813699Y-79339599D01*
X99110000Y-79339599D01*
X99110000Y-73769599D01*
X112054699Y-73769599D01*
X112318281Y-74407515D01*
X112805918Y-74896004D01*
X113443373Y-75160699D01*
X114133599Y-75161301D01*
X114771515Y-74897719D01*
X115260004Y-74410082D01*
X115524699Y-73772627D01*
X115525301Y-73082401D01*
X115261719Y-72444485D01*
X114774082Y-71955996D01*
X114672343Y-71913750D01*
X119912000Y-71913750D01*
X119912000Y-72379310D01*
X120008673Y-72612699D01*
X120187302Y-72791327D01*
X120420691Y-72888000D01*
X120761250Y-72888000D01*
X120920000Y-72729250D01*
X120920000Y-71755000D01*
X120070750Y-71755000D01*
X119912000Y-71913750D01*
X114672343Y-71913750D01*
X114136627Y-71691301D01*
X113446401Y-71690699D01*
X112808485Y-71954281D01*
X112319996Y-72441918D01*
X112055301Y-73079373D01*
X112054699Y-73769599D01*
X99110000Y-73769599D01*
X99110000Y-68649795D01*
X108854716Y-68649795D01*
X109103106Y-69250943D01*
X109427759Y-69576164D01*
X109104722Y-69898637D01*
X108855284Y-70499352D01*
X108854716Y-71149795D01*
X109103106Y-71750943D01*
X109562637Y-72211278D01*
X110163352Y-72460716D01*
X110813795Y-72461284D01*
X111414943Y-72212894D01*
X111875278Y-71753363D01*
X112124716Y-71152648D01*
X112124956Y-70876690D01*
X119912000Y-70876690D01*
X119912000Y-71342250D01*
X120070750Y-71501000D01*
X120920000Y-71501000D01*
X120920000Y-70526750D01*
X121174000Y-70526750D01*
X121174000Y-71501000D01*
X121194000Y-71501000D01*
X121194000Y-71755000D01*
X121174000Y-71755000D01*
X121174000Y-72729250D01*
X121332750Y-72888000D01*
X121673309Y-72888000D01*
X121906698Y-72791327D01*
X122047936Y-72650090D01*
X122082910Y-72704441D01*
X122223334Y-72800389D01*
X122382461Y-73038539D01*
X122618393Y-73274471D01*
X122618291Y-73390935D01*
X122801582Y-73834535D01*
X123140680Y-74174225D01*
X123583959Y-74358290D01*
X124063935Y-74358709D01*
X124507535Y-74175418D01*
X124847225Y-73836320D01*
X125031290Y-73393041D01*
X125031709Y-72913065D01*
X125019260Y-72882935D01*
X137350291Y-72882935D01*
X137533582Y-73326535D01*
X137872680Y-73666225D01*
X138315959Y-73850290D01*
X138434315Y-73850393D01*
X138792709Y-74208787D01*
X138750559Y-74235910D01*
X138605569Y-74448110D01*
X138554560Y-74700000D01*
X138554560Y-75700000D01*
X138598838Y-75935317D01*
X138737910Y-76151441D01*
X138806006Y-76197969D01*
X138663673Y-76340302D01*
X138567000Y-76573691D01*
X138567000Y-76914250D01*
X138725750Y-77073000D01*
X139700000Y-77073000D01*
X139700000Y-77053000D01*
X139954000Y-77053000D01*
X139954000Y-77073000D01*
X140928250Y-77073000D01*
X141087000Y-76914250D01*
X141087000Y-76573691D01*
X140990327Y-76340302D01*
X140849090Y-76199064D01*
X140903441Y-76164090D01*
X141048431Y-75951890D01*
X141099440Y-75700000D01*
X141099440Y-74700000D01*
X141055162Y-74464683D01*
X140916090Y-74248559D01*
X140798188Y-74168000D01*
X141719560Y-74168000D01*
X141719560Y-76708000D01*
X141763838Y-76943317D01*
X141902910Y-77159441D01*
X142115110Y-77304431D01*
X142367000Y-77355440D01*
X144907000Y-77355440D01*
X145142317Y-77311162D01*
X145358441Y-77172090D01*
X145503431Y-76959890D01*
X145554440Y-76708000D01*
X145554440Y-74168000D01*
X145510162Y-73932683D01*
X145371090Y-73716559D01*
X145158890Y-73571569D01*
X144907000Y-73520560D01*
X142367000Y-73520560D01*
X142131683Y-73564838D01*
X141915559Y-73703910D01*
X141770569Y-73916110D01*
X141719560Y-74168000D01*
X140798188Y-74168000D01*
X140766800Y-74146554D01*
X140766800Y-73914000D01*
X140695262Y-73554354D01*
X140491539Y-73249461D01*
X139763607Y-72521529D01*
X139763709Y-72405065D01*
X139580418Y-71961465D01*
X139241320Y-71621775D01*
X138798041Y-71437710D01*
X138318065Y-71437291D01*
X137874465Y-71620582D01*
X137534775Y-71959680D01*
X137350710Y-72402959D01*
X137350291Y-72882935D01*
X125019260Y-72882935D01*
X124848418Y-72469465D01*
X124509320Y-72129775D01*
X124194440Y-71999026D01*
X124194440Y-71825638D01*
X124963471Y-71056607D01*
X125079935Y-71056709D01*
X125523535Y-70873418D01*
X125863225Y-70534320D01*
X126047290Y-70091041D01*
X126047709Y-69611065D01*
X125864418Y-69167465D01*
X125525320Y-68827775D01*
X125082041Y-68643710D01*
X124602065Y-68643291D01*
X124158465Y-68826582D01*
X123818775Y-69165680D01*
X123634710Y-69608959D01*
X123634607Y-69727315D01*
X123006362Y-70355560D01*
X122547000Y-70355560D01*
X122311683Y-70399838D01*
X122095559Y-70538910D01*
X122049031Y-70607006D01*
X121906698Y-70464673D01*
X121673309Y-70368000D01*
X121332750Y-70368000D01*
X121174000Y-70526750D01*
X120920000Y-70526750D01*
X120761250Y-70368000D01*
X120420691Y-70368000D01*
X120187302Y-70464673D01*
X120008673Y-70643301D01*
X119912000Y-70876690D01*
X112124956Y-70876690D01*
X112125284Y-70502205D01*
X111876894Y-69901057D01*
X111552241Y-69575836D01*
X111875278Y-69253363D01*
X112124716Y-68652648D01*
X112125284Y-68002205D01*
X111876894Y-67401057D01*
X111460813Y-66984248D01*
X111462927Y-66978532D01*
X110490000Y-66005605D01*
X109517073Y-66978532D01*
X109519361Y-66984722D01*
X109104722Y-67398637D01*
X108855284Y-67999352D01*
X108854716Y-68649795D01*
X99110000Y-68649795D01*
X99110000Y-65561461D01*
X108844092Y-65561461D01*
X108868144Y-66211460D01*
X109070613Y-66700264D01*
X109337468Y-66798927D01*
X110310395Y-65826000D01*
X110669605Y-65826000D01*
X111642532Y-66798927D01*
X111909387Y-66700264D01*
X112135908Y-66090539D01*
X112111856Y-65440540D01*
X111909387Y-64951736D01*
X111642532Y-64853073D01*
X110669605Y-65826000D01*
X110310395Y-65826000D01*
X109337468Y-64853073D01*
X109070613Y-64951736D01*
X108844092Y-65561461D01*
X99110000Y-65561461D01*
X99110000Y-64673468D01*
X109517073Y-64673468D01*
X110490000Y-65646395D01*
X111462927Y-64673468D01*
X111364264Y-64406613D01*
X110754539Y-64180092D01*
X110104540Y-64204144D01*
X109615736Y-64406613D01*
X109517073Y-64673468D01*
X99110000Y-64673468D01*
X99110000Y-63569599D01*
X112054699Y-63569599D01*
X112318281Y-64207515D01*
X112805918Y-64696004D01*
X113443373Y-64960699D01*
X114133599Y-64961301D01*
X114771515Y-64697719D01*
X115260004Y-64210082D01*
X115524699Y-63572627D01*
X115525301Y-62882401D01*
X115354461Y-62468935D01*
X127825291Y-62468935D01*
X128008582Y-62912535D01*
X128092200Y-62996299D01*
X128092200Y-67051399D01*
X128009775Y-67133680D01*
X127825710Y-67576959D01*
X127825291Y-68056935D01*
X128008582Y-68500535D01*
X128347680Y-68840225D01*
X128790959Y-69024290D01*
X129270935Y-69024709D01*
X129714535Y-68841418D01*
X130054225Y-68502320D01*
X130238290Y-68059041D01*
X130238709Y-67579065D01*
X130055418Y-67135465D01*
X129971800Y-67051701D01*
X129971800Y-64262000D01*
X135603655Y-64262000D01*
X135717729Y-64835489D01*
X136042585Y-65321670D01*
X136357366Y-65532000D01*
X136042585Y-65742330D01*
X135717729Y-66228511D01*
X135603655Y-66802000D01*
X135717729Y-67375489D01*
X136042585Y-67861670D01*
X136056913Y-67871243D01*
X136035683Y-67875238D01*
X135819559Y-68014310D01*
X135674569Y-68226510D01*
X135623560Y-68478400D01*
X135623560Y-70205600D01*
X135667838Y-70440917D01*
X135806910Y-70657041D01*
X136019110Y-70802031D01*
X136271000Y-70853040D01*
X138303000Y-70853040D01*
X138538317Y-70808762D01*
X138754441Y-70669690D01*
X138899431Y-70457490D01*
X138950440Y-70205600D01*
X138950440Y-69764782D01*
X141779500Y-69764782D01*
X142082685Y-70443434D01*
X142622501Y-70954403D01*
X143214219Y-71199493D01*
X143510000Y-71083626D01*
X143510000Y-69469000D01*
X143764000Y-69469000D01*
X143764000Y-71083626D01*
X144059781Y-71199493D01*
X144651499Y-70954403D01*
X145191315Y-70443434D01*
X145494500Y-69764782D01*
X145379019Y-69469000D01*
X143764000Y-69469000D01*
X143510000Y-69469000D01*
X141894981Y-69469000D01*
X141779500Y-69764782D01*
X138950440Y-69764782D01*
X138950440Y-68919218D01*
X141779500Y-68919218D01*
X141894981Y-69215000D01*
X143510000Y-69215000D01*
X143510000Y-67600374D01*
X143764000Y-67600374D01*
X143764000Y-69215000D01*
X145379019Y-69215000D01*
X145494500Y-68919218D01*
X145191315Y-68240566D01*
X144651499Y-67729597D01*
X144059781Y-67484507D01*
X143764000Y-67600374D01*
X143510000Y-67600374D01*
X143214219Y-67484507D01*
X142622501Y-67729597D01*
X142082685Y-68240566D01*
X141779500Y-68919218D01*
X138950440Y-68919218D01*
X138950440Y-68478400D01*
X138906162Y-68243083D01*
X138767090Y-68026959D01*
X138554890Y-67881969D01*
X138513561Y-67873600D01*
X138531415Y-67861670D01*
X138856271Y-67375489D01*
X138970345Y-66802000D01*
X138856271Y-66228511D01*
X138531415Y-65742330D01*
X138216634Y-65532000D01*
X138531415Y-65321670D01*
X138856271Y-64835489D01*
X138970345Y-64262000D01*
X138856271Y-63688511D01*
X138531415Y-63202330D01*
X138216635Y-62992000D01*
X141719560Y-62992000D01*
X141719560Y-65532000D01*
X141763838Y-65767317D01*
X141902910Y-65983441D01*
X142115110Y-66128431D01*
X142367000Y-66179440D01*
X144907000Y-66179440D01*
X145142317Y-66135162D01*
X145358441Y-65996090D01*
X145503431Y-65783890D01*
X145554440Y-65532000D01*
X145554440Y-62992000D01*
X145510162Y-62756683D01*
X145371090Y-62540559D01*
X145158890Y-62395569D01*
X144907000Y-62344560D01*
X142367000Y-62344560D01*
X142131683Y-62388838D01*
X141915559Y-62527910D01*
X141770569Y-62740110D01*
X141719560Y-62992000D01*
X138216635Y-62992000D01*
X138045234Y-62877474D01*
X137471745Y-62763400D01*
X137102255Y-62763400D01*
X136528766Y-62877474D01*
X136042585Y-63202330D01*
X135717729Y-63688511D01*
X135603655Y-64262000D01*
X129971800Y-64262000D01*
X129971800Y-62996601D01*
X130054225Y-62914320D01*
X130238290Y-62471041D01*
X130238709Y-61991065D01*
X130055418Y-61547465D01*
X129716320Y-61207775D01*
X129273041Y-61023710D01*
X128793065Y-61023291D01*
X128349465Y-61206582D01*
X128009775Y-61545680D01*
X127825710Y-61988959D01*
X127825291Y-62468935D01*
X115354461Y-62468935D01*
X115261719Y-62244485D01*
X114774082Y-61755996D01*
X114136627Y-61491301D01*
X113446401Y-61490699D01*
X112808485Y-61754281D01*
X112319996Y-62241918D01*
X112055301Y-62879373D01*
X112054699Y-63569599D01*
X99110000Y-63569599D01*
X99110000Y-51533967D01*
X123074430Y-51533967D01*
X123074430Y-52606033D01*
X123179900Y-53136268D01*
X123480254Y-53585779D01*
X123929765Y-53886133D01*
X124460000Y-53991603D01*
X124990235Y-53886133D01*
X125439746Y-53585779D01*
X125730000Y-53151384D01*
X126020254Y-53585779D01*
X126469765Y-53886133D01*
X127000000Y-53991603D01*
X127530235Y-53886133D01*
X127979746Y-53585779D01*
X128270000Y-53151384D01*
X128560254Y-53585779D01*
X129009765Y-53886133D01*
X129540000Y-53991603D01*
X130070235Y-53886133D01*
X130519746Y-53585779D01*
X130820100Y-53136268D01*
X130925570Y-52606033D01*
X130925570Y-51533967D01*
X130820100Y-51003732D01*
X130519746Y-50554221D01*
X130070235Y-50253867D01*
X129540000Y-50148397D01*
X129009765Y-50253867D01*
X128560254Y-50554221D01*
X128270000Y-50988616D01*
X127979746Y-50554221D01*
X127530235Y-50253867D01*
X127000000Y-50148397D01*
X126469765Y-50253867D01*
X126020254Y-50554221D01*
X125730000Y-50988616D01*
X125439746Y-50554221D01*
X124990235Y-50253867D01*
X124460000Y-50148397D01*
X123929765Y-50253867D01*
X123480254Y-50554221D01*
X123179900Y-51003732D01*
X123074430Y-51533967D01*
X99110000Y-51533967D01*
X99110000Y-48614630D01*
X112508990Y-48614630D01*
X112781033Y-49273025D01*
X113284325Y-49777196D01*
X113942245Y-50050389D01*
X114654630Y-50051010D01*
X115313025Y-49778967D01*
X115817196Y-49275675D01*
X116090389Y-48617755D01*
X116090391Y-48614630D01*
X137908990Y-48614630D01*
X138181033Y-49273025D01*
X138684325Y-49777196D01*
X139342245Y-50050389D01*
X140054630Y-50051010D01*
X140713025Y-49778967D01*
X141217196Y-49275675D01*
X141490389Y-48617755D01*
X141491010Y-47905370D01*
X141218967Y-47246975D01*
X140715675Y-46742804D01*
X140057755Y-46469611D01*
X139345370Y-46468990D01*
X138686975Y-46741033D01*
X138182804Y-47244325D01*
X137909611Y-47902245D01*
X137908990Y-48614630D01*
X116090391Y-48614630D01*
X116091010Y-47905370D01*
X115818967Y-47246975D01*
X115315675Y-46742804D01*
X114657755Y-46469611D01*
X113945370Y-46468990D01*
X113286975Y-46741033D01*
X112782804Y-47244325D01*
X112509611Y-47902245D01*
X112508990Y-48614630D01*
X99110000Y-48614630D01*
X99110000Y-33335619D01*
X101015613Y-33335619D01*
X101355155Y-34157372D01*
X101983321Y-34786636D01*
X102804481Y-35127611D01*
X103693619Y-35128387D01*
X104515372Y-34788845D01*
X105144636Y-34160679D01*
X105485611Y-33339519D01*
X105485614Y-33335619D01*
X148513613Y-33335619D01*
X148853155Y-34157372D01*
X149481321Y-34786636D01*
X150302481Y-35127611D01*
X151191619Y-35128387D01*
X152013372Y-34788845D01*
X152642636Y-34160679D01*
X152983611Y-33339519D01*
X152984387Y-32450381D01*
X152644845Y-31628628D01*
X152016679Y-30999364D01*
X151195519Y-30658389D01*
X150306381Y-30657613D01*
X149484628Y-30997155D01*
X148855364Y-31625321D01*
X148514389Y-32446481D01*
X148513613Y-33335619D01*
X105485614Y-33335619D01*
X105486387Y-32450381D01*
X105146845Y-31628628D01*
X104518679Y-30999364D01*
X103697519Y-30658389D01*
X102808381Y-30657613D01*
X101986628Y-30997155D01*
X101357364Y-31625321D01*
X101016389Y-32446481D01*
X101015613Y-33335619D01*
X99110000Y-33335619D01*
X99110000Y-28752000D01*
X154890000Y-28752000D01*
X154890000Y-91390000D01*
M02*
